<svg width="102" height="101" viewBox="0 0 102 101" fill="none" xmlns="http://www.w3.org/2000/svg">
<path d="M69.3728 50.168H99.9993" stroke="#57C2BB" stroke-width="3" stroke-miterlimit="10" stroke-linecap="round"/>
<path d="M2 50.168H32.6265" stroke="#57C2BB" stroke-width="3" stroke-miterlimit="10" stroke-linecap="round"/>
<path d="M51.0013 68.2031V98.6707" stroke="#57C2BB" stroke-width="3" stroke-miterlimit="10" stroke-linecap="round"/>
<path d="M51.0013 1.70312V32.1711" stroke="#57C2BB" stroke-width="3" stroke-miterlimit="10" stroke-linecap="round"/>
<path d="M51.0013 66.9336V85.2156" stroke="#57C2BB" stroke-width="2" stroke-miterlimit="10" stroke-linecap="round"/>
<path d="M57.4131 65.707L64.2891 82.6648" stroke="#57C2BB" stroke-width="2" stroke-miterlimit="10" stroke-linecap="round"/>
<path d="M62.8874 62.1758L75.6586 75.323" stroke="#57C2BB" stroke-width="2" stroke-miterlimit="10" stroke-linecap="round"/>
<path d="M66.638 56.832L83.4211 64.2654" stroke="#57C2BB" stroke-width="2" stroke-miterlimit="10" stroke-linecap="round"/>
<path d="M38.0397 17.3711L44.9303 34.3108" stroke="#57C2BB" stroke-width="2" stroke-miterlimit="10" stroke-linecap="round"/>
<path d="M26.8615 24.2305L39.6332 37.3789" stroke="#57C2BB" stroke-width="2" stroke-miterlimit="10" stroke-linecap="round"/>
<path d="M19.0615 34.7812L35.8447 42.2158" stroke="#57C2BB" stroke-width="2" stroke-miterlimit="10" stroke-linecap="round"/>
<path d="M18.441 63.2983L35.4846 56.4453" stroke="#57C2BB" stroke-width="2" stroke-miterlimit="10" stroke-linecap="round"/>
<path d="M25.8549 74.4456L39.07 61.7539" stroke="#57C2BB" stroke-width="2" stroke-miterlimit="10" stroke-linecap="round"/>
<path d="M36.932 82.0305L44.4046 65.3359" stroke="#57C2BB" stroke-width="2" stroke-miterlimit="10" stroke-linecap="round"/>
<path d="M66.8402 43.5635L83.8832 36.707" stroke="#57C2BB" stroke-width="2" stroke-miterlimit="10" stroke-linecap="round"/>
<path d="M63.4481 37.8115L76.6637 25.1055" stroke="#57C2BB" stroke-width="2" stroke-miterlimit="10" stroke-linecap="round"/>
<path d="M58.0842 33.7231L65.5725 17.0273" stroke="#57C2BB" stroke-width="2" stroke-miterlimit="10" stroke-linecap="round"/>
</svg>
