<svg width="101" height="108" viewBox="0 0 101 108" fill="none" xmlns="http://www.w3.org/2000/svg">
<path d="M68.6866 53.9336H99.0015" stroke="#B878AC" stroke-width="3" stroke-miterlimit="10" stroke-linecap="round"/>
<path d="M2 53.9336H32.3149" stroke="#B878AC" stroke-width="3" stroke-miterlimit="10" stroke-linecap="round"/>
<path d="M50.5032 73.2461V105.888" stroke="#B878AC" stroke-width="3" stroke-miterlimit="10" stroke-linecap="round"/>
<path d="M50.5032 2V34.6426" stroke="#B878AC" stroke-width="3" stroke-miterlimit="10" stroke-linecap="round"/>
<path d="M50.5032 71.8867V91.4733" stroke="#B878AC" stroke-width="2" stroke-miterlimit="10" stroke-linecap="round"/>
<path d="M56.8516 70.5703L63.6575 88.7385" stroke="#B878AC" stroke-width="2" stroke-miterlimit="10" stroke-linecap="round"/>
<path d="M62.2659 66.7812L74.9072 80.8667" stroke="#B878AC" stroke-width="2" stroke-miterlimit="10" stroke-linecap="round"/>
<path d="M65.9773 61.0664L82.5898 69.0303" stroke="#B878AC" stroke-width="2" stroke-miterlimit="10" stroke-linecap="round"/>
<path d="M37.6746 18.7812L44.4951 36.9298" stroke="#B878AC" stroke-width="2" stroke-miterlimit="10" stroke-linecap="round"/>
<path d="M26.6083 26.1328L39.25 40.2195" stroke="#B878AC" stroke-width="2" stroke-miterlimit="10" stroke-linecap="round"/>
<path d="M18.8925 37.4414L35.5048 45.4066" stroke="#B878AC" stroke-width="2" stroke-miterlimit="10" stroke-linecap="round"/>
<path d="M18.2767 67.9906L35.1468 60.6484" stroke="#B878AC" stroke-width="2" stroke-miterlimit="10" stroke-linecap="round"/>
<path d="M25.6104 79.9373L38.6912 66.3398" stroke="#B878AC" stroke-width="2" stroke-miterlimit="10" stroke-linecap="round"/>
<path d="M36.579 88.0658L43.9754 70.1797" stroke="#B878AC" stroke-width="2" stroke-miterlimit="10" stroke-linecap="round"/>
<path d="M66.1812 46.8496L83.0507 39.5039" stroke="#B878AC" stroke-width="2" stroke-miterlimit="10" stroke-linecap="round"/>
<path d="M62.8179 40.687L75.899 27.0742" stroke="#B878AC" stroke-width="2" stroke-miterlimit="10" stroke-linecap="round"/>
<path d="M57.5141 36.3013L64.9262 18.4141" stroke="#B878AC" stroke-width="2" stroke-miterlimit="10" stroke-linecap="round"/>
</svg>
