<?xml version="1.0" encoding="UTF-8"?>
<!DOCTYPE svg PUBLIC "-//W3C//DTD SVG 1.1//EN" "http://www.w3.org/Graphics/SVG/1.1/DTD/svg11.dtd">
<!-- Creator: CorelDRAW 2018 (64-Bit) -->
<svg xmlns="http://www.w3.org/2000/svg" xml:space="preserve" width="auto" height="116" version="1.1" style="shape-rendering:geometricPrecision; text-rendering:geometricPrecision; image-rendering:optimizeQuality; fill-rule:evenodd; clip-rule:evenodd"
viewBox="0 0 257.13 257.13"
 xmlns:xlink="http://www.w3.org/1999/xlink">
 <defs>
  <style type="text/css">
   <![CDATA[
    .fil2 {fill:#D22F56;fill-rule:nonzero}
    .fil1 {fill:#2D3F63;fill-rule:nonzero}
    .fil0 {fill:#465A82;fill-rule:nonzero}
    .fil3 {fill:black;fill-rule:nonzero}
   ]]>
  </style>
 </defs>
 <g id="Слой_x0020_1">
  <metadata id="CorelCorpID_0Corel-Layer"/>
  <g id="_1113323984">
   <polygon class="fil0" points="35.22,245.25 67.69,245.25 67.69,202.64 35.22,202.64 "/>
   <polygon class="fil0" points="67.69,245.25 100.16,245.25 100.16,179.3 67.69,179.3 "/>
   <polygon class="fil0" points="100.16,245.25 132.63,245.25 132.63,153.93 100.16,153.93 "/>
   <polygon class="fil0" points="132.63,245.25 165.09,245.25 165.09,128.57 132.63,128.57 "/>
   <polygon class="fil0" points="165.1,245.25 197.56,245.25 197.56,103.2 165.1,103.2 "/>
   <polygon class="fil0" points="197.56,245.25 230.03,245.25 230.03,77.84 197.56,77.84 "/>
   <polygon class="fil1" points="56.53,245.25 67.69,245.25 67.69,202.64 56.53,202.64 "/>
   <polygon class="fil1" points="89,245.25 100.16,245.25 100.16,179.3 89,179.3 "/>
   <polygon class="fil1" points="121.47,245.25 132.63,245.25 132.63,153.93 121.47,153.93 "/>
   <polygon class="fil1" points="153.93,245.25 165.1,245.25 165.1,128.57 153.93,128.57 "/>
   <polygon class="fil1" points="186.4,245.25 197.56,245.25 197.56,103.2 186.4,103.2 "/>
   <polygon class="fil1" points="218.87,245.25 230.03,245.25 230.03,77.84 218.87,77.84 "/>
   <path class="fil2" d="M189.45 3.77l-31.45 0c-4.48,0 -8.12,3.63 -8.12,8.12 0,4.48 3.63,8.12 8.12,8.12l11.86 0 -132.34 132.34c-3.17,3.17 -3.17,8.31 0,11.48 1.59,1.59 3.66,2.38 5.74,2.38 2.08,0 4.15,-0.79 5.74,-2.38l132.35 -132.35 0 11.86c0,4.48 3.63,8.12 8.12,8.12 4.48,0 8.12,-3.64 8.12,-8.12l0 -31.45c-0,-4.48 -3.64,-8.12 -8.12,-8.12z"/>
   <path class="fil3" d="M253.37 241.48l-19.57 0 0 -120.71c0,-2.08 -1.69,-3.77 -3.77,-3.77 -2.08,0 -3.77,1.69 -3.77,3.77l0 120.71 -24.94 0 0 -159.89 24.94 0 0 21.6c0,2.08 1.68,3.77 3.77,3.77 2.08,0 3.77,-1.69 3.77,-3.77l0 -25.37c0,-2.08 -1.69,-3.77 -3.77,-3.77l-32.47 0c-2.08,0 -3.77,1.69 -3.77,3.77l0 21.6 -28.7 0c-2.08,0 -3.77,1.69 -3.77,3.77l0 21.6 -28.7 0c-2.08,0 -3.77,1.69 -3.77,3.77l0 21.6 -28.7 0c-2.08,0 -3.77,1.68 -3.77,3.77l0 21.6 -28.7 0c-2.08,0 -3.77,1.69 -3.77,3.77l0 19.57 -28.7 0c-2.08,0 -3.77,1.69 -3.77,3.77l0 10.49c0,2.08 1.69,3.77 3.77,3.77 2.08,0 3.77,-1.69 3.77,-3.77l0 -6.72 24.94 0 0 35.08 -24.94 0 0 -10.78c0,-2.08 -1.69,-3.77 -3.77,-3.77 -2.08,0 -3.77,1.69 -3.77,3.77l0 10.78 -15.8 0 0 -237.72c0,-2.08 -1.69,-3.77 -3.77,-3.77 -2.08,0 -3.77,1.69 -3.77,3.77l0 19.57 -4.35 0c-2.08,0 -3.77,1.68 -3.77,3.77 0,2.08 1.69,3.77 3.77,3.77l4.35 0 0 24.93 -4.35 0c-2.08,0 -3.77,1.69 -3.77,3.77 0,2.08 1.69,3.77 3.77,3.77l4.35 0 0 24.94 -4.35 0c-2.08,0 -3.77,1.69 -3.77,3.77 0,2.08 1.69,3.77 3.77,3.77l4.35 0 0 24.94 -4.35 0c-2.08,0 -3.77,1.69 -3.77,3.77 0,2.08 1.69,3.77 3.77,3.77l4.35 0 0 24.94 -4.35 0c-2.08,0 -3.77,1.69 -3.77,3.77 0,2.08 1.69,3.77 3.77,3.77l4.35 0 0 24.94 -4.35 0c-2.08,0 -3.77,1.69 -3.77,3.77 0,2.08 1.69,3.77 3.77,3.77l4.35 0 0 24.94 -4.35 0c-2.08,0 -3.77,1.69 -3.77,3.77 0,2.08 1.69,3.77 3.77,3.77l4.35 0 0 19.57c0,2.08 1.69,3.77 3.77,3.77l19.57 0 0 4.35c0,2.08 1.69,3.77 3.77,3.77 2.08,0 3.77,-1.69 3.77,-3.77l0 -4.35 24.94 0 0 4.35c0,2.08 1.68,3.77 3.77,3.77 2.08,0 3.77,-1.69 3.77,-3.77l0 -4.35 24.94 0 0 4.35c0,2.08 1.68,3.77 3.77,3.77 2.08,0 3.77,-1.69 3.77,-3.77l0 -4.35 24.93 0 0 4.35c0,2.08 1.69,3.77 3.77,3.77 2.08,0 3.77,-1.69 3.77,-3.77l0 -4.35 24.94 0 0 4.35c0,2.08 1.69,3.77 3.77,3.77 2.08,0 3.77,-1.69 3.77,-3.77l0 -4.35 24.94 0 0 4.35c0,2.08 1.69,3.77 3.77,3.77 2.08,0 3.77,-1.69 3.77,-3.77l0 -4.35 24.94 0 0 4.35c0,2.08 1.68,3.77 3.77,3.77 2.08,0 3.77,-1.69 3.77,-3.77l0 -4.35 19.57 0c2.08,0 3.77,-1.69 3.77,-3.77 0,-2.08 -1.69,-3.76 -3.77,-3.76zm-181.91 -58.42l24.94 0 0 58.42 -24.94 0 0 -58.42zm32.47 -25.36l24.94 0 0 83.78 -24.94 0 0 -83.78zm32.47 -25.37l24.93 0 0 109.15 -24.93 0 0 -109.15zm32.47 -25.37l24.94 0 0 134.52 -24.94 0 0 -134.52z"/>
   <path class="fil3" d="M43.24 169.97c3.18,0 6.16,-1.23 8.4,-3.48l56.71 -56.7c1.47,-1.47 1.47,-3.86 0,-5.33 -1.47,-1.47 -3.86,-1.47 -5.33,0l-56.7 56.71c-0.82,0.82 -1.92,1.27 -3.08,1.27 -1.16,0 -2.25,-0.45 -3.07,-1.27 -0.82,-0.82 -1.28,-1.92 -1.28,-3.08 0,-1.16 0.45,-2.25 1.28,-3.07l132.34 -132.34c1.08,-1.08 1.4,-2.7 0.82,-4.1 -0.58,-1.41 -1.96,-2.33 -3.48,-2.33l-11.86 0c-2.4,0 -4.35,-1.95 -4.35,-4.35 0,-2.4 1.95,-4.35 4.35,-4.35l31.45 0c2.4,0 4.35,1.95 4.35,4.35l0 31.45c0,2.4 -1.95,4.35 -4.35,4.35 -2.4,0 -4.35,-1.95 -4.35,-4.35l0 -11.86c0,-1.53 -0.92,-2.9 -2.33,-3.48 -1.41,-0.58 -3.03,-0.26 -4.11,0.82l-63.22 63.22c-1.47,1.47 -1.47,3.86 0,5.33 1.47,1.47 3.86,1.47 5.33,0l56.79 -56.79 0 2.77c0,6.55 5.33,11.89 11.88,11.89 6.55,0 11.88,-5.33 11.88,-11.89l0 -31.45c0,-6.55 -5.33,-11.88 -11.88,-11.88l-31.45 0c-6.55,0 -11.88,5.33 -11.88,11.88 0,6.55 5.33,11.89 11.88,11.89l2.76 0 -125.91 125.91c-2.25,2.24 -3.48,5.23 -3.48,8.4 0,3.17 1.24,6.16 3.48,8.4 2.24,2.24 5.22,3.48 8.4,3.48z"/>
  </g>
 </g>
</svg>
