<svg width="1920" height="1571" viewBox="0 0 1920 1571" fill="none" xmlns="http://www.w3.org/2000/svg">
<path d="M1695.3 1320.15C1714.54 1291.84 1854.71 1360.29 1922.38 1398.05C1919.78 1410.4 1711.36 1489.01 1658.29 1497.5C1605.22 1505.99 1671.24 1355.52 1695.3 1320.15Z" stroke="#E3B2DA" stroke-width="2"/>
<path d="M1912.75 1175.71C1844.64 1208.65 1891.64 1337.12 1923.65 1397.24C2078.87 1266.1 2089.46 1208.34 2075.35 1195.86C2049.52 1175.42 1980.85 1142.77 1912.75 1175.71Z" stroke="#57C2BB" stroke-width="2"/>
<path d="M1887.07 1096.26C1818.8 1133.09 1883.08 1312.24 1923.75 1397.21C2072.98 1237.41 2077.61 1160.47 2061.28 1141.98C2031.65 1111.39 1955.34 1059.43 1887.07 1096.26Z" stroke="#5F2659" stroke-width="2"/>
<path d="M1662.69 1287.29C1689.33 1255.91 1846.77 1347.27 1922.16 1396.86C1917.42 1411.04 1659.25 1485.34 1595.06 1490.84C1530.86 1496.33 1629.39 1326.51 1662.69 1287.29Z" stroke="#5F2659" stroke-width="2"/>
<path d="M1928.4 1402.27C1820.7 1311.71 1456.77 1168.3 862.569 1319.25C268.371 1470.2 -58.9916 1309.13 -148.398 1209.73" stroke="#B878AC" stroke-width="3"/>
<path d="M1959.51 1400.5C1889.34 1403.17 1741.81 1348.1 1713.01 1106.5C1684.21 864.9 1817.67 608.5 1888.01 510.5C1986.01 370.167 2182.01 76.8 2182.01 26" stroke="#5F2659" stroke-width="2"/>
<path d="M1939.29 1396.18C1869.4 1389.42 1730.58 1315.08 1734.41 1071.8C1738.25 828.519 1904.87 592.317 1987.7 504.626C2103.62 378.691 2337.17 114.235 2343.98 63.8934" stroke="#57C2BB" stroke-width="2"/>
<path d="M1883.23 1377.13C1897.77 1387.52 1910.09 1397.29 1920 1406C1906.42 1395.37 1894.22 1385.8 1883.23 1377.13C1782.95 1305.44 1576.95 1204 1325.85 1214.18C966.475 1228.74 686.848 1310.59 591.645 1305.57C496.442 1300.55 163.481 1330.17 -3 1214.18V706H1778.94C1735.74 818.482 1664 1069.66 1722.62 1174.51C1789.94 1294.94 1758.79 1278.84 1883.23 1377.13Z" fill="url(#paint0_linear)"/>
<path d="M1928.46 1399.7C1825.95 1303.3 1470.53 1139.94 868.875 1257.71C267.222 1375.48 -50.707 1196.51 -134.465 1092.3" stroke="#57C2BB" stroke-width="2"/>
<defs>
<linearGradient id="paint0_linear" x1="867.5" y1="1406" x2="872.135" y2="705.999" gradientUnits="userSpaceOnUse">
<stop stop-color="#E3B2DA"/>
<stop offset="1" stop-color="white" stop-opacity="0"/>
</linearGradient>
</defs>
</svg>
