<svg width="980" height="683" viewBox="0 0 980 683" fill="none" xmlns="http://www.w3.org/2000/svg">
<path d="M888.657 558.659C898.131 544.726 967.135 578.422 1000.45 597.011C999.173 603.093 896.565 641.792 870.439 645.972C844.314 650.152 876.816 576.076 888.657 558.659Z" stroke="#E3B2DA" stroke-width="2"/>
<path d="M983.062 508.44C949.455 526.572 981.097 614.768 1001.12 656.6C1074.58 577.928 1076.87 540.053 1068.83 530.95C1054.24 515.892 1016.67 490.308 983.062 508.44Z" stroke="#5F2659" stroke-width="2"/>
<path d="M872.602 542.487C885.718 527.04 963.226 572.013 1000.34 596.43C998.009 603.409 870.911 639.989 839.307 642.694C807.703 645.4 856.207 561.796 872.602 542.487Z" stroke="#5F2659" stroke-width="2"/>
<path d="M1043.82 617.69C984.472 573.122 783.878 502.593 456.286 577.024C128.694 651.455 -51.7347 572.221 -101 523.301" stroke="#B878AC" stroke-width="3"/>
<path d="M1103.17 676.955C1064.75 678.269 983.964 651.148 968.195 532.157C952.425 413.167 1025.51 286.887 1064.02 238.621C1117.68 169.506 1225 25.0195 1225 0" stroke="#5F2659" stroke-width="2"/>
<path d="M1026.58 626.86C1034.66 635.19 1041.5 643.018 1047 650C1039.46 641.48 1032.68 633.813 1026.58 626.86C970.887 569.41 856.476 488.114 717.022 496.268C517.429 507.939 362.129 573.537 309.255 569.512C256.381 565.488 71.4603 589.231 -21 496.268V89H968.658C944.666 179.146 904.821 380.447 937.376 464.476C974.769 560.993 957.467 548.093 1026.58 626.86Z" fill="url(#paint0_linear)"/>
<path d="M1043.94 616.828C987.433 569.37 791.494 488.948 459.814 546.927C128.134 604.905 -47.1345 516.797 -93.3086 465.496" stroke="#57C2BB" stroke-width="2"/>
<defs>
<linearGradient id="paint0_linear" x1="462.46" y1="650" x2="467.82" y2="89.0259" gradientUnits="userSpaceOnUse">
<stop stop-color="#E3B2DA"/>
<stop offset="1" stop-color="white" stop-opacity="0"/>
</linearGradient>
</defs>
</svg>
