<?xml version="1.0" encoding="UTF-8"?>
<!DOCTYPE svg PUBLIC "-//W3C//DTD SVG 1.1//EN" "http://www.w3.org/Graphics/SVG/1.1/DTD/svg11.dtd">
<!-- Creator: CorelDRAW 2018 (64-Bit) -->
<svg xmlns="http://www.w3.org/2000/svg" xml:space="preserve" width="auto" height="116" version="1.1" style="shape-rendering:geometricPrecision; text-rendering:geometricPrecision; image-rendering:optimizeQuality; fill-rule:evenodd; clip-rule:evenodd"
viewBox="0 0 482.24 297.52"
 xmlns:xlink="http://www.w3.org/1999/xlink">
 <defs>
  <style type="text/css">
   <![CDATA[
    .fil2 {fill:#F7B997;fill-rule:nonzero}
    .fil3 {fill:#F39866;fill-rule:nonzero}
    .fil6 {fill:#E9466D;fill-rule:nonzero}
    .fil7 {fill:#E1335B;fill-rule:nonzero}
    .fil8 {fill:#E7EBEF;fill-rule:nonzero}
    .fil9 {fill:black;fill-rule:nonzero}
    .fil5 {fill:#2D3F63;fill-rule:nonzero}
    .fil4 {fill:#465A82;fill-rule:nonzero}
    .fil1 {fill:#DEB795;fill-rule:nonzero}
    .fil0 {fill:#F0D0B4;fill-rule:nonzero}
   ]]>
  </style>
 </defs>
 <g id="Слой_x0020_1">
  <metadata id="CorelCorpID_0Corel-Layer"/>
  <g id="_1114362384">
   <path class="fil0" d="M393.95 138.73l-12.25 -99.51 -22.95 2.83 0.01 -0.02 -44.5 -25.05c-4.75,-2.67 -10.2,-3.83 -15.62,-3.33l-70.27 6.5c-8.64,0.8 -16.36,5.73 -20.71,13.23l-49.53 85.25c-3.66,6.29 -0.79,14.37 6.02,16.94l2.03 0.76c3.9,1.47 7.9,2.32 11.91,2.66l-6.28 5.47 -12.55 10.94 -35.71 30.46c-6.36,5.54 -7.02,15.17 -1.48,21.53l3.62 4.15c7.11,8.15 19.49,9 27.66,1.89l13.65 15.65c4.44,5.1 10.94,7.35 17.18,6.58 3.75,-0.46 7.42,-2.02 10.47,-4.69l13.63 15.66c4.45,5.11 10.95,7.35 17.2,6.58 3.75,-0.46 7.42,-2 10.48,-4.68l7.41 6.4c7.11,8.17 19.5,9.01 27.67,1.9l10.07 -8.79 84.67 -65.94 0.09 -0.08 33.41 -0.03 -5.32 -43.25z"/>
   <path class="fil1" d="M357.66 156.37l-0.09 0.08 -84.67 65.94 -10.07 8.79c-8.17,7.11 -20.56,6.27 -27.67,-1.9l-7.41 -6.4c-3.06,2.67 -6.72,4.22 -10.48,4.68 -6.25,0.77 -12.74,-1.47 -17.2,-6.58l-13.63 -15.66c-3.06,2.67 -6.72,4.23 -10.47,4.69 -6.25,0.77 -12.75,-1.48 -17.18,-6.58l-13.65 -15.65c-6.99,6.09 -17.06,6.33 -24.28,1.16 -3.7,5.58 -3.41,13.15 1.21,18.44l3.62 4.15c7.11,8.15 19.49,9 27.66,1.89l13.65 15.65c4.44,5.1 10.94,7.35 17.18,6.58 3.75,-0.46 7.41,-2.02 10.47,-4.69l13.63 15.66c4.45,5.11 10.95,7.35 17.2,6.58 3.75,-0.46 7.42,-2 10.48,-4.68l7.41 6.4c7.11,8.17 19.5,9.01 27.67,1.9l10.07 -8.79 84.67 -65.94 0.09 -0.08 33.41 -0.03 -3.7 -30.02 -37.92 4.42z"/>
   <path class="fil2" d="M373.08 199.42l-45.37 -39.12 -12.62 -10.87 -9.03 -7.77 -38.81 -33.46 4.48 -38.15c1.52,-12.9 -6.61,-24.99 -19.13,-28.45l-84.6 -23.41c-8.95,-2.48 -18.41,1.68 -22.65,9.94l-10.64 20.77 -45.67 -3.1 -11.7 99.58 -5.08 43.27 44.45 2.96 0.09 0.08 92.87 80.05 10.12 8.73c8.21,7.07 20.59,6.15 27.66,-2.05l13.54 -15.72c3.07,2.66 6.75,4.18 10.5,4.62 6.25,0.73 12.74,-1.54 17.16,-6.67l13.55 -15.73c3.07,2.66 6.74,4.19 10.5,4.63 6.25,0.73 12.74,-1.56 17.15,-6.68l13.56 -15.73c8.21,7.07 20.58,6.15 27.65,-2.04l3.6 -4.17c5.5,-6.39 4.79,-16.02 -1.6,-21.52z"/>
   <path class="fil3" d="M373.08 199.42l-13.82 -11.91c4.49,5.96 4.4,14.43 -0.67,20.31l-3.82 4.43c-7.5,8.7 -20.63,9.67 -29.35,2.17l-14.4 16.7c-4.68,5.44 -11.57,7.87 -18.2,7.09 -3.99,-0.47 -7.88,-2.1 -11.15,-4.92l-14.38 16.7c-4.7,5.45 -11.58,7.86 -18.22,7.08 -3.99,-0.47 -7.89,-2.08 -11.15,-4.9l-14.38 16.68c-2.71,3.15 -6.16,5.27 -9.87,6.36l6.12 5.28c8.21,7.07 20.59,6.15 27.66,-2.05l13.54 -15.72c3.07,2.66 6.75,4.18 10.5,4.62 6.25,0.73 12.74,-1.54 17.16,-6.67l13.55 -15.73c3.07,2.66 6.74,4.19 10.5,4.63 6.25,0.73 12.74,-1.56 17.15,-6.68l13.56 -15.73c8.21,7.07 20.58,6.15 27.65,-2.04l3.6 -4.17c5.5,-6.39 4.79,-16.02 -1.6,-21.52z"/>
   <path class="fil0" d="M119.04 191.51l-5.38 7.11c-5.86,7.74 -4.34,18.76 3.4,24.62l0 0c7.74,5.86 18.76,4.34 24.62,-3.4l5.38 -7.11c5.86,-7.74 4.34,-18.76 -3.4,-24.62l0 0c-7.74,-5.86 -18.76,-4.34 -24.62,3.4z"/>
   <path class="fil0" d="M151.81 206.45l-10.13 13.38c-5.86,7.74 -4.34,18.76 3.4,24.62l0 0c7.74,5.86 18.76,4.34 24.62,-3.4l10.13 -13.38c5.86,-7.74 4.34,-18.76 -3.4,-24.62l0 0c-7.74,-5.86 -18.76,-4.34 -24.62,3.4z"/>
   <path class="fil0" d="M183.51 222.82l-13.81 18.24c-5.86,7.74 -4.34,18.76 3.4,24.62l0 0c7.74,5.86 18.76,4.34 24.62,-3.4l13.81 -18.24c5.86,-7.74 4.34,-18.76 -3.4,-24.62l0 0c-7.74,-5.86 -18.76,-4.34 -24.62,3.4z"/>
   <path class="fil0" d="M212.33 242.98l-14.61 19.29c-5.86,7.74 -4.34,18.76 3.4,24.62l0 0c7.74,5.86 18.76,4.34 24.62,-3.4l14.61 -19.29c5.86,-7.74 4.34,-18.76 -3.4,-24.62l0 0c-7.74,-5.86 -18.76,-4.34 -24.62,3.4z"/>
   <path class="fil0" d="M358.75 42.03l-44.5 -25.05c-4.75,-2.67 -10.2,-3.83 -15.62,-3.33l-70.27 6.5c-8.64,0.8 -16.36,5.73 -20.71,13.23l-49.53 85.25c-3.66,6.3 -0.79,14.37 6.02,16.94l2.03 0.76c18.15,6.86 38.66,1.02 50.48,-14.37l18.98 -24.7c0,0 45.61,52.81 95.83,-8.86l27.29 -46.38z"/>
   <path class="fil4" d="M451.9 7.06l23.28 189.08 -54.43 6.7c-10.29,1.26 -19.65,-6.05 -20.92,-16.33l-18.69 -151.83c-1.27,-10.29 6.05,-19.65 16.33,-20.92l54.43 -6.7z"/>
   <path class="fil5" d="M419.84 181.51c-10.59,1.3 -20.28,-5.68 -22.58,-15.87l2.57 20.87c1.27,10.29 10.63,17.6 20.92,16.33l54.43 -6.7 -2.6 -21.13 -52.74 6.49z"/>
   <path class="fil6" d="M30.34 7.06l-23.28 189.08 54.43 6.7c10.29,1.27 19.65,-6.05 20.92,-16.33l18.69 -151.83c1.27,-10.29 -6.05,-19.65 -16.33,-20.92l-54.43 -6.7z"/>
   <path class="fil7" d="M62.78 181.04l-53.05 -6.53 -2.66 21.64 54.43 6.7c10.29,1.27 19.65,-6.05 20.92,-16.33l1.97 -16.04c-4.35,7.25 -12.68,11.66 -21.61,10.56z"/>
   <path class="fil8" d="M437.03 151.36c7.54,0 13.66,6.11 13.66,13.66 0,7.54 -6.11,13.66 -13.66,13.66 -7.54,0 -13.66,-6.11 -13.66,-13.66 0,-7.54 6.11,-13.66 13.66,-13.66z"/>
   <path class="fil8" d="M44.45 151.36c7.54,0 13.66,6.11 13.66,13.66 0,7.54 -6.11,13.66 -13.66,13.66 -7.54,0 -13.66,-6.11 -13.66,-13.66 0,-7.54 6.11,-13.66 13.66,-13.66z"/>
   <path class="fil9" d="M234.72 259.94l-14.61 19.29c-1.69,2.24 -4.16,3.68 -6.94,4.07 -2.78,0.38 -5.55,-0.34 -7.78,-2.03 -2.24,-1.69 -3.68,-4.16 -4.07,-6.94 -0.38,-2.78 0.34,-5.54 2.03,-7.78l13.81 -18.24c0,-0 0,-0.01 0.01,-0.01l0.79 -1.05c1.69,-2.24 4.16,-3.68 6.94,-4.07 2.78,-0.38 5.54,0.34 7.78,2.03 4.62,3.5 5.53,10.1 2.03,14.72zm-57.36 0.11c-2.24,-1.69 -3.68,-4.16 -4.07,-6.94 -0.38,-2.78 0.34,-5.54 2.03,-7.78 0,-0 0,-0 0,-0l10.13 -13.38 0 0 3.68 -4.86c1.69,-2.24 4.16,-3.68 6.94,-4.07 2.78,-0.38 5.54,0.34 7.78,2.03 4.62,3.5 5.53,10.1 2.04,14.72l-13.81 18.24c-0,0 -0,0 -0,0 -3.5,4.62 -10.1,5.53 -14.72,2.03zm-28.02 -21.22c-2.24,-1.69 -3.68,-4.16 -4.07,-6.94 -0.38,-2.78 0.34,-5.54 2.03,-7.78l5.38 -7.1c0,0 0,-0 0,-0l4.75 -6.27c2.06,-2.73 5.21,-4.16 8.39,-4.16 2.21,0 4.44,0.69 6.33,2.13 4.62,3.5 5.53,10.1 2.03,14.72l-10.13 13.38c-3.5,4.62 -10.1,5.53 -14.72,2.03zm-20.24 -19.19c-2.78,0.39 -5.54,-0.34 -7.78,-2.03 -2.24,-1.69 -3.68,-4.16 -4.07,-6.94 -0.38,-2.78 0.34,-5.54 2.03,-7.78l5.38 -7.11c1.69,-2.24 4.16,-3.68 6.94,-4.07 2.78,-0.38 5.54,0.34 7.78,2.03 2.24,1.69 3.68,4.16 4.07,6.94 0.38,2.78 -0.34,5.54 -2.03,7.78l-5.38 7.11c-1.7,2.24 -4.16,3.68 -6.94,4.07zm112.11 14.31c-5.75,-4.36 -12.81,-5.79 -19.4,-4.57 -1.04,-6.24 -4.36,-11.76 -9.42,-15.6 -5.25,-3.97 -11.73,-5.66 -18.25,-4.77 -1.62,0.22 -3.18,0.6 -4.69,1.12 -1.43,-4.9 -4.38,-9.41 -8.76,-12.72 -7.21,-5.46 -16.47,-6.33 -24.28,-3.12 -1.56,-4.68 -4.48,-8.78 -8.49,-11.83 -5.25,-3.97 -11.73,-5.66 -18.25,-4.77 -5.29,0.73 -10.08,3.09 -13.83,6.76l-25.86 -1.72 15.85 -128.74 28.4 1.93c0.16,0.01 0.32,0.02 0.48,0.02 2.64,0 5.07,-1.47 6.28,-3.84l10.64 -20.77c2.7,-5.26 8.78,-7.93 14.48,-6.35l15.8 4.37c3.76,1.04 7.65,-1.17 8.69,-4.93 1.04,-3.76 -1.17,-7.65 -4.93,-8.69l-15.8 -4.37c-12.11,-3.35 -25.07,2.33 -30.81,13.52l-8.52 16.63 -22.98 -1.56 0.54 -4.42c1.74,-14.14 -8.34,-27.05 -22.48,-28.79l-54.43 -6.7c-0.29,-0.04 -0.58,-0.05 -0.87,-0.05l-0.05 0c-3.5,0.02 -6.52,2.64 -6.96,6.2 -0.48,3.87 2.28,7.4 6.15,7.88l54.43 6.7c3.1,0.38 5.87,1.95 7.79,4.41 1.92,2.46 2.77,5.53 2.39,8.63l-18.69 151.83c-0.79,6.4 -6.64,10.97 -13.05,10.19l-54.43 -6.7c-3.88,-0.47 -7.4,2.27 -7.87,6.15 -0.04,0.3 -0.05,0.6 -0.05,0.9 0.01,3.5 2.63,6.53 6.2,6.97l54.43 6.7c1.07,0.13 2.13,0.19 3.17,0.19 9.54,0 18.15,-5.3 22.61,-13.38l19.34 1.29c-2.31,4.48 -3.2,9.54 -2.5,14.63 0.9,6.52 4.29,12.3 9.53,16.27 4.33,3.28 9.49,5 14.82,5 1.14,0 2.28,-0.08 3.42,-0.24 0.07,-0.01 0.14,-0.02 0.22,-0.04 0.01,0.07 0.01,0.15 0.02,0.22 0.9,6.52 4.29,12.3 9.53,16.27 4.44,3.36 9.66,4.99 14.85,4.99 1.22,0 2.43,-0.1 3.63,-0.28 0.81,6.34 4.06,12.36 9.55,16.51 4.44,3.36 9.66,4.99 14.85,4.99 1.21,0 2.42,-0.1 3.62,-0.27 0.01,0.08 0.02,0.16 0.03,0.24 0.9,6.52 4.29,12.3 9.53,16.27 4.33,3.28 9.49,5 14.82,5l0.05 0c1.12,-0 2.24,-0.08 3.37,-0.24 6.52,-0.9 12.3,-4.29 16.27,-9.53l14.61 -19.3c8.2,-10.83 6.07,-26.31 -4.77,-34.51z"/>
   <path class="fil9" d="M482.19 195.28c-0.48,-3.87 -4,-6.62 -7.87,-6.15l-54.43 6.7c-6.41,0.79 -12.26,-3.78 -13.04,-10.19l-0.56 -4.53 0 0 -0.13 -1.05 -18 -146.25c-0.38,-3.1 0.47,-6.17 2.39,-8.63 1.92,-2.46 4.69,-4.03 7.79,-4.41l54.43 -6.7c3.87,-0.48 6.62,-4 6.15,-7.88 -0.44,-3.57 -3.47,-6.18 -6.97,-6.2 -0.3,-0 -0.6,0.02 -0.9,0.05l-54.43 6.7c-13.3,1.64 -23.01,13.17 -22.66,26.3l-13.73 1.69 -42.5 -23.92c-6.02,-3.39 -12.84,-4.85 -19.73,-4.22 -0.01,0 -0.03,0.01 -0.04,0.01l-12.79 1.18c-3.88,0.36 -6.74,3.8 -6.38,7.69 0.36,3.88 3.79,6.74 7.68,6.38l12.83 -1.19c4.01,-0.37 7.99,0.48 11.5,2.46l44.07 24.8c1.38,0.91 3.06,1.33 4.75,1.12l15.94 -1.96 11.69 94.98 4.04 32.85 -25.43 0.02c-1.7,0 -3.33,0.61 -4.61,1.72l-1.97 1.53 -63.84 -55.02c14.59,-4.19 28.5,-14.34 41.5,-30.31 2.46,-3.02 2.01,-7.47 -1.02,-9.94 -3.02,-2.46 -7.48,-2.01 -9.94,1.02 -14.53,17.85 -29.81,27.03 -45.42,27.3 -22.73,0.43 -39.44,-18.42 -39.59,-18.6 -1.39,-1.61 -3.43,-2.5 -5.55,-2.44 -2.12,0.06 -4.11,1.07 -5.4,2.76l-18.98 24.7c-10,13.01 -27.03,17.86 -42.38,12.06l-2.03 -0.77c-1.78,-0.67 -2.5,-2.06 -2.78,-2.83 -0.27,-0.77 -0.59,-2.31 0.37,-3.95l49.53 -85.25c3.2,-5.51 8.91,-9.16 15.26,-9.74l29.32 -2.71c3.88,-0.36 6.74,-3.8 6.38,-7.69 -0.36,-3.88 -3.8,-6.74 -7.69,-6.38l-29.32 2.71c-10.89,1.01 -20.68,7.26 -26.17,16.71l-49.53 85.25c-2.79,4.8 -3.32,10.55 -1.46,15.78 1.86,5.23 5.91,9.35 11.1,11.31l2.03 0.77c5.98,2.26 12.13,3.35 18.21,3.35 15.5,-0 30.44,-7.1 40.37,-20.02l14.16 -18.42c7.59,6.54 21.74,16.22 39.81,17.41l92.25 79.51c1.66,1.43 2.66,3.42 2.82,5.6 0.16,2.18 -0.53,4.3 -1.96,5.96l-3.6 4.17c-4.52,5.23 -12.46,5.81 -17.7,1.3 -0.29,-0.25 -0.6,-0.47 -0.92,-0.66l-23.95 -20.65c-2.95,-2.55 -7.41,-2.22 -9.96,0.74 -2.55,2.95 -2.22,7.42 0.74,9.96l19.46 16.78 -8.88 10.3c-2.73,3.16 -6.83,4.76 -10.98,4.28 -2.48,-0.29 -4.8,-1.32 -6.71,-2.97 -0.03,-0.03 -0.07,-0.05 -0.1,-0.08l-22.25 -19.19c-2.95,-2.55 -7.41,-2.22 -9.96,0.74 -2.55,2.95 -2.22,7.42 0.74,9.96l17 14.66 -8.93 10.37c-2.73,3.16 -6.84,4.76 -10.99,4.28 -3.88,-0.46 -7.38,2.32 -7.84,6.19 -0.45,3.87 2.32,7.39 6.19,7.84 1.05,0.12 2.09,0.18 3.13,0.18 7.71,0 15.1,-3.34 20.21,-9.27l9.55 -11.09c2.61,1.24 5.41,2.06 8.32,2.4 8.82,1.04 17.53,-2.36 23.33,-9.08l9.56 -11.1c10.57,5.02 23.64,2.61 31.64,-6.66l3.6 -4.18c3.89,-4.52 5.79,-10.28 5.35,-16.23 -0.44,-5.95 -3.17,-11.37 -7.69,-15.25l-5.8 -5 21.19 -0.02c2.32,12.21 13.06,21 25.35,21 1.05,0 2.11,-0.06 3.17,-0.2l54.43 -6.7c3.51,-0.43 6.1,-3.37 6.2,-6.8l0 -0.4c-0.01,-0.23 -0.02,-0.45 -0.05,-0.68z"/>
   <path class="fil9" d="M437.03 171.6c-3.64,0 -6.59,-2.96 -6.59,-6.59 0,-3.63 2.96,-6.59 6.59,-6.59 3.63,0 6.59,2.96 6.59,6.59 0,3.64 -2.96,6.59 -6.59,6.59zm0 -27.31c-11.42,0 -20.72,9.29 -20.72,20.72 0,11.42 9.3,20.72 20.72,20.72 11.42,0 20.72,-9.3 20.72,-20.72 0,-11.42 -9.29,-20.72 -20.72,-20.72z"/>
   <path class="fil9" d="M37.86 165.01c0,-3.63 2.96,-6.59 6.59,-6.59 3.64,0 6.59,2.96 6.59,6.59 0,3.64 -2.96,6.59 -6.59,6.59 -3.63,0 -6.59,-2.96 -6.59,-6.59zm27.31 0c0,-11.42 -9.29,-20.72 -20.72,-20.72 -11.42,0 -20.72,9.29 -20.72,20.72 0,11.42 9.29,20.72 20.72,20.72 11.42,0 20.72,-9.3 20.72,-20.72z"/>
  </g>
 </g>
</svg>
