<?xml version="1.0" encoding="UTF-8"?>
<!DOCTYPE svg PUBLIC "-//W3C//DTD SVG 1.1//EN" "http://www.w3.org/Graphics/SVG/1.1/DTD/svg11.dtd">
<!-- Creator: CorelDRAW 2018 (64-Bit) -->
<svg xmlns="http://www.w3.org/2000/svg" xml:space="preserve" width="150" height="auto" version="1.1" style="shape-rendering:geometricPrecision; text-rendering:geometricPrecision; image-rendering:optimizeQuality; fill-rule:evenodd; clip-rule:evenodd"
viewBox="0 0 364.17 364.17"
 xmlns:xlink="http://www.w3.org/1999/xlink">
 <defs>
  <style type="text/css">
   <![CDATA[
    .fil3 {fill:#E9466D;fill-rule:nonzero}
    .fil4 {fill:black;fill-rule:nonzero}
    .fil1 {fill:#465A82;fill-rule:nonzero}
    .fil0 {fill:#DFEEF4;fill-rule:nonzero}
    .fil2 {fill:#F0D0B4;fill-rule:nonzero}
   ]]>
  </style>
 </defs>
 <g id="Слой_x0020_1">
  <metadata id="CorelCorpID_0Corel-Layer"/>
  <g id="_1113323888">
   <path class="fil0" d="M229.07 52.86c0,25.95 -21.04,46.99 -46.99,46.99 -25.95,0 -46.99,-21.04 -46.99,-46.99 0,-25.95 21.04,-46.99 46.99,-46.99 25.95,0 46.99,21.04 46.99,46.99z"/>
   <path class="fil0" d="M358.3 182.08c0,25.95 -21.04,46.99 -46.99,46.99 -25.95,0 -46.99,-21.04 -46.99,-46.99 0,-25.95 21.04,-46.99 46.99,-46.99 25.95,0 46.99,21.04 46.99,46.99z"/>
   <path class="fil0" d="M229.07 311.31c0,25.95 -21.04,46.99 -46.99,46.99 -25.95,0 -46.99,-21.04 -46.99,-46.99 0,-25.95 21.04,-46.99 46.99,-46.99 25.95,0 46.99,21.04 46.99,46.99z"/>
   <polygon class="fil1" points="76.36,158.59 76.36,240.82 5.87,240.82 5.87,152.72 "/>
   <path class="fil2" d="M193.83 170.34c3.23,0 6.17,1.29 8.28,3.46 2.17,2.11 3.46,5.05 3.46,8.28 0,6.46 -5.28,11.75 -11.75,11.75 6.46,0 11.75,5.28 11.75,11.75 0,3.23 -1.29,6.17 -3.46,8.28 -2.11,2.17 -5.05,3.46 -8.28,3.46l-11.75 0c3.23,0 6.17,1.29 8.28,3.46 2.17,2.11 3.46,5.05 3.46,8.28 0,6.46 -5.28,11.75 -11.75,11.75l-105.73 0 0 -82.23 1.59 -4.76c2.76,-8.28 8.4,-15.33 15.92,-19.86 10.99,-6.58 17.74,-18.5 17.74,-31.36l0 -14.51c0,-3.23 1.29,-6.17 3.46,-8.28 2.11,-2.17 5.05,-3.46 8.28,-3.46 12.98,0 23.49,10.51 23.49,23.49l0 29.37c0,9.75 7.87,17.62 17.62,17.62l29.37 0c3.23,0 6.17,1.29 8.28,3.46 2.17,2.11 3.46,5.05 3.46,8.28 0,6.46 -5.28,11.75 -11.75,11.75z"/>
   <path class="fil2" d="M199.71 305.43c0,9.73 -7.89,17.62 -17.62,17.62 -9.73,0 -17.62,-7.89 -17.62,-17.62 0,-9.73 7.89,-17.62 17.62,-17.62 9.73,0 17.62,7.89 17.62,17.62z"/>
   <path class="fil3" d="M211.16 348.19l0 0.06c-7.99,6.29 -18.09,10.05 -29.07,10.05 -10.98,0 -21.09,-3.76 -29.07,-10.05l0 -0.06c2.11,-14.27 14.27,-25.14 29.07,-25.14 7.4,0 14.16,2.7 19.32,7.22 5.17,4.52 8.75,10.81 9.75,17.92z"/>
   <path class="fil4" d="M182.08 258.44c-29.15,0 -52.86,23.72 -52.86,52.86 0,29.15 23.71,52.86 52.86,52.86 29.15,0 52.86,-23.72 52.86,-52.86 0,-29.15 -23.71,-52.86 -52.86,-52.86zm-22.45 87.26c2.93,-9.75 12.01,-16.78 22.45,-16.78 10.44,0 19.53,7.02 22.46,16.78 -6.47,4.23 -14.17,6.71 -22.46,6.71 -8.28,0 -15.99,-2.49 -22.45,-6.71zm10.71 -40.28c0,-6.48 5.27,-11.75 11.75,-11.75 6.48,0 11.75,5.27 11.75,11.75 0,6.48 -5.27,11.75 -11.75,11.75 -6.48,0 -11.75,-5.27 -11.75,-11.75zm43.48 31.98c-3.2,-6.7 -8.38,-12.21 -14.81,-15.77 4.05,-4.22 6.57,-9.92 6.57,-16.22 0,-12.96 -10.54,-23.49 -23.5,-23.49 -12.96,0 -23.49,10.54 -23.49,23.49 0,6.3 2.52,12 6.57,16.22 -6.43,3.56 -11.61,9.06 -14.81,15.77 -5.85,-7.11 -9.38,-16.21 -9.38,-26.11 0,-22.67 18.45,-41.12 41.12,-41.12 22.66,0 41.12,18.44 41.12,41.12 0,9.9 -3.53,19 -9.38,26.11z"/>
   <path class="fil4" d="M182.08 0c-29.15,0 -52.86,23.72 -52.86,52.86 0,6.84 1.35,13.36 3.72,19.37 -3.02,-1.06 -6.22,-1.75 -9.6,-1.75 -9.72,0 -17.62,7.91 -17.62,17.62l0 14.52c0,10.73 -5.72,20.82 -14.91,26.34 -8.69,5.22 -15.24,13.38 -18.43,22.99l-0.13 0.41 -72.25 -6.02 0 100.36 182.08 0c9.72,0 17.62,-7.9 17.62,-17.62 0,-2.32 -0.47,-4.52 -1.29,-6.55 7.49,-2.04 13.04,-8.82 13.04,-16.94 0,-4.53 -1.77,-8.62 -4.58,-11.75 2.82,-3.12 4.58,-7.22 4.58,-11.75 0,-4.53 -1.77,-8.62 -4.58,-11.75 2.82,-3.12 4.58,-7.22 4.58,-11.75 0,-9.71 -7.9,-17.62 -17.61,-17.62l-29.38 0c-6.48,0 -11.75,-5.27 -11.75,-11.75l0 -29.37c0,-1.13 -0.21,-2.19 -0.34,-3.29 8.48,5.77 18.7,9.16 29.71,9.16 29.15,0 52.86,-23.72 52.86,-52.86 0,-29.15 -23.71,-52.86 -52.86,-52.86zm-111.6 234.95l-58.74 0 0 -75.85 58.74 4.89 0 70.95zm93.98 -82.23l29.38 0c3.23,0 5.87,2.64 5.87,5.87 0,3.24 -2.63,5.87 -5.87,5.87l-41.12 0 0 11.75 41.12 0c3.24,0 5.87,2.64 5.87,5.87 0,3.23 -2.63,5.87 -5.87,5.87l-41.12 0 0 11.75 41.12 0c3.24,0 5.87,2.64 5.87,5.87 0,3.24 -2.63,5.87 -5.87,5.87l-41.12 0 0 11.75 29.37 0c3.24,0 5.87,2.63 5.87,5.87 0,3.24 -2.63,5.87 -5.87,5.87l-99.85 0 0 -75.41 1.3 -3.88c2.32,-6.95 7.04,-12.85 13.33,-16.62 12.72,-7.63 20.62,-21.59 20.62,-36.41l0 -14.52c0,-3.24 2.63,-5.87 5.87,-5.87 9.71,0 17.62,7.9 17.62,17.62l0 29.37c-0.01,12.95 10.53,23.49 23.49,23.49zm17.62 -58.74c-22.66,0 -41.12,-18.44 -41.12,-41.12 0,-22.67 18.45,-41.12 41.12,-41.12 22.66,0 41.12,18.44 41.12,41.12 0,22.67 -18.45,41.12 -41.12,41.12z"/>
   <path class="fil4" d="M311.31 129.22c-29.15,0 -52.86,23.72 -52.86,52.86 0,29.15 23.71,52.86 52.86,52.86 29.15,0 52.86,-23.72 52.86,-52.86 0,-29.15 -23.71,-52.86 -52.86,-52.86zm0 93.98c-22.66,0 -41.12,-18.44 -41.12,-41.12 0,-22.67 18.45,-41.12 41.12,-41.12 22.66,0 41.12,18.44 41.12,41.12 0,22.67 -18.45,41.12 -41.12,41.12z"/>
   <polygon class="fil4" points="328.93,164.46 328.93,187.96 317.18,187.96 317.18,152.72 305.43,152.72 305.43,187.96 293.68,187.96 293.68,176.21 281.94,176.21 281.94,199.71 340.67,199.71 340.67,164.46 "/>
   <polygon class="fil4" points="176.21,58.74 187.96,58.74 187.96,46.99 176.21,46.99 "/>
   <polygon class="fil4" points="199.71,58.74 211.45,58.74 211.45,46.99 199.71,46.99 "/>
   <polygon class="fil4" points="152.72,58.74 164.46,58.74 164.46,46.99 152.72,46.99 "/>
   <path class="fil4" d="M306.32 102.97l7.85 12.5 8.76 -43.84 -11.52 -2.31 -3.15 15.76c-15.18,-20.09 -34.24,-35.12 -59.09,-46.74l-4.98 10.64c27.29,12.76 47.03,29.92 62.12,53.99z"/>
   <path class="fil4" d="M38.34 114.99l10.65 4.98c12.75,-27.28 29.91,-47.02 53.98,-62.12l12.5 -7.84 -43.83 -8.77 -2.3 11.51 15.76 3.16c-20.1,15.18 -35.13,34.25 -46.75,59.09z"/>
   <path class="fil4" d="M57.85 261.2l-7.85 -12.5 -8.76 43.84 11.52 2.31 3.15 -15.76c15.18,20.09 34.24,35.12 59.09,46.74l4.98 -10.64c-27.3,-12.76 -47.04,-29.92 -62.13,-53.99z"/>
   <path class="fil4" d="M325.83 249.18l-10.65 -4.97c-12.75,27.28 -29.91,47.02 -53.98,62.12l-12.5 7.84 43.83 8.77 2.31 -11.52 -15.76 -3.15c20.09,-15.18 35.12,-34.24 46.74,-59.08z"/>
  </g>
 </g>
</svg>
