<?xml version="1.0" encoding="UTF-8"?>
<!DOCTYPE svg PUBLIC "-//W3C//DTD SVG 1.1//EN" "http://www.w3.org/Graphics/SVG/1.1/DTD/svg11.dtd">
<!-- Creator: CorelDRAW 2018 (64-Bit) -->
<svg xmlns="http://www.w3.org/2000/svg" xml:space="preserve" width="auto" height="116" version="1.1" style="shape-rendering:geometricPrecision; text-rendering:geometricPrecision; image-rendering:optimizeQuality; fill-rule:evenodd; clip-rule:evenodd"
viewBox="0 0 409.43 409.39"
 xmlns:xlink="http://www.w3.org/1999/xlink">
 <defs>
  <style type="text/css">
   <![CDATA[
    .fil8 {fill:black;fill-rule:nonzero}
    .fil2 {fill:#2D3F63;fill-rule:nonzero}
    .fil1 {fill:#465A82;fill-rule:nonzero}
    .fil6 {fill:#C9BFC8;fill-rule:nonzero}
    .fil0 {fill:#EFEDEF;fill-rule:nonzero}
    .fil5 {fill:#F9F7F8;fill-rule:nonzero}
    .fil7 {fill:#FAE2C0;fill-rule:nonzero}
    .fil4 {fill:#FEDF30;fill-rule:nonzero}
    .fil3 {fill:#FEE45A;fill-rule:nonzero}
   ]]>
  </style>
 </defs>
 <g id="Слой_x0020_1">
  <metadata id="CorelCorpID_0Corel-Layer"/>
  <g id="_1113301968">
   <path class="fil0" d="M52.6 200.14l-26.7 0c-10.98,0 -19.89,8.91 -19.89,19.9l0 19.53c0,10.99 8.91,19.9 19.89,19.9l26.7 0 19.16 -5.73 0 -41.12 -19.16 -12.49z"/>
   <polygon class="fil1" points="65.06,200.14 52.6,200.14 52.6,259.48 156.5,259.48 156.5,200.14 "/>
   <polygon class="fil2" points="60.93,258.87 143.85,258.87 143.85,200.75 60.93,200.75 "/>
   <path class="fil3" d="M378.32 331.18c9.08,10.07 1.93,26.14 -11.63,26.14l-270.66 0c-8.65,0 -15.66,-7.01 -15.66,-15.65l0 -300.17c0,-14.34 17.68,-21.13 27.29,-10.48l111.98 124.19 94.01 104.27 64.66 71.71zm-82.08 -17.8l-95.36 -113.25 -74.62 -82.75c-0.65,-0.72 -1.85,-0.26 -1.85,0.71l0 194.12c0,0.59 0.47,1.06 1.06,1.06l93.38 0 77.39 0.1z"/>
   <polygon class="fil4" points="311.22,357.32 330.43,357.32 330.43,278.08 313.66,259.48 219.65,155.21 199.63,133.02 199.63,198.76 200.88,200.14 296.24,313.39 218.85,313.29 199.63,313.29 199.63,357.32 "/>
   <path class="fil5" d="M310.41 12.12l0 385.15c0,3.38 -2.74,6.12 -6.11,6.12l-78.53 0c-3.38,0 -6.12,-2.74 -6.12,-6.12l0 -385.15c0,-3.38 2.74,-6.12 6.12,-6.12l78.53 0c3.38,0 6.11,2.74 6.11,6.12z"/>
   <path class="fil6" d="M402.27 227.46l-26.36 -18.9 -15.02 0.93 0 38.59 15.19 2.86 26.19 -18.78c1.55,-1.18 1.55,-3.51 0,-4.69z"/>
   <polygon class="fil7" points="375.92,208.56 364.17,200.14 340.52,200.14 321.34,211.05 321.34,254.02 340.52,259.48 364.17,259.48 376.08,250.94 "/>
   <polygon class="fil0" points="219.65,279.49 310.41,279.49 310.41,180.13 219.65,180.13 "/>
   <polygon class="fil1" points="155.08,259.48 340.51,259.48 340.51,200.14 155.08,200.14 "/>
   <path class="fil8" d="M405.92 222.7c-0.05,-0.04 -0.1,-0.08 -0.15,-0.11l-38.1 -27.32c-1.02,-0.73 -2.24,-1.12 -3.5,-1.12l-47.75 0 0 -182.02c0,-6.69 -5.44,-12.12 -12.12,-12.12l-78.54 0c-6.68,0 -12.12,5.44 -12.12,12.12l0 127.46 -101.52 -112.59c-6.06,-6.71 -15.42,-8.95 -23.86,-5.71 -8.44,3.25 -13.89,11.18 -13.89,20.22l0 152.64 -48.46 0c-14.29,0 -25.91,11.62 -25.91,25.91l0 19.52c0,14.29 11.62,25.91 25.91,25.91l48.46 0 0 20.51c0,3.32 2.69,6 6.01,6 3.32,0 6.01,-2.69 6.01,-6l0 -244.48c0,-6.16 4.74,-8.45 6.19,-9.01 1.45,-0.56 6.51,-2.02 10.63,2.55l110.44 122.48 0 36.62 -10.1 0 -74.68 -82.82c-1.66,-1.85 -4.29,-2.47 -6.61,-1.58 -2.32,0.89 -3.85,3.12 -3.85,5.6l0 197.96c0,3.31 2.69,6 6.01,6l89.23 0 0 32.02 -117.61 0c-5.32,0 -9.65,-4.33 -9.65,-9.65l0 -30.1c0,-3.31 -2.69,-6 -6.01,-6 -3.32,0 -6.01,2.69 -6.01,6l0 30.1c0,11.94 9.72,21.66 21.66,21.66l117.61 0 0 33.94c0,6.69 5.43,12.12 12.12,12.12l78.54 0c6.68,0 12.12,-5.43 12.12,-12.12l0 -33.94 50.27 0c8.68,0 16.26,-4.93 19.79,-12.86 3.52,-7.93 2.11,-16.86 -3.71,-23.31l-55.62 -61.69 37.01 0c1.25,0 2.48,-0.39 3.5,-1.12l38.1 -27.32c0.05,-0.04 0.1,-0.07 0.15,-0.11 2.23,-1.71 3.51,-4.3 3.51,-7.11 0,-2.81 -1.28,-5.4 -3.51,-7.11zm-393.91 16.87l0 -19.52c0,-7.66 6.23,-13.9 13.9,-13.9l20.69 0 0 47.32 -20.69 0c-7.66,0 -13.9,-6.23 -13.9,-13.9zm46.59 13.9l0 -47.32 15.77 0 0 47.32 -15.77 0zm128.77 -59.33l-56.96 0 0 -63.17 56.96 63.17zm-56.96 113.15l0 -41.82 28.42 0c3.32,0 6.01,-2.69 6.01,-6 0,-3.31 -2.69,-6.01 -6.01,-6.01l-28.42 0 0 -47.32 121.82 0c3.32,0 6.01,-2.69 6.01,-6 0,-3.32 -2.69,-6 -6.01,-6l-26.58 0 0 -182.02c0,-0.06 0.05,-0.11 0.11,-0.11l78.54 0c0.06,0 0.11,0.05 0.11,0.11l0 45.29 -11.92 0c-3.31,0 -6,2.69 -6,6.01 0,3.31 2.69,6 6,6l11.92 0 0 39.92 -11.92 0c-3.31,0 -6,2.69 -6,6.01 0,3.32 2.69,6 6,6l11.92 0 0 39.92 -11.92 0c-3.31,0 -6,2.69 -6,6.01 0,3.31 2.69,6 6,6l11.92 0 0 20.87 -26.58 0c-3.31,0 -6.01,2.69 -6.01,6 0,3.32 2.69,6 6.01,6l56.68 0 0 47.32 -150.09 0c-3.32,0 -6.01,2.69 -6.01,6.01 0,3.32 2.69,6 6.01,6l29.22 0 0 41.82 -83.23 0zm173.89 90.09l-78.54 0c-0.06,0 -0.11,-0.05 -0.11,-0.11l0 -131.8 78.76 0 0 21.81 -11.92 0c-3.31,0 -6,2.69 -6,6.01 0,3.31 2.69,6 6,6l11.92 0 0 39.92 -11.92 0c-3.31,0 -6,2.69 -6,6.01 0,3.31 2.69,6 6,6l11.92 0 0 46.05c0,0.06 -0.05,0.11 -0.11,0.11zm71.21 -51.79c-1.6,3.59 -4.89,5.73 -8.82,5.73l-50.27 0 0 -79.82 57.44 63.7c2.63,2.92 3.25,6.8 1.65,10.39zm-13.27 -92.13l-15.72 0 0 -47.32 15.72 0 7.41 5.32 0 36.69 -7.41 5.31zm19.42 -13.92l0 -19.47 13.58 9.73 -13.58 9.74z"/>
  </g>
 </g>
</svg>
