<?xml version="1.0" encoding="UTF-8"?>
<!DOCTYPE svg PUBLIC "-//W3C//DTD SVG 1.1//EN" "http://www.w3.org/Graphics/SVG/1.1/DTD/svg11.dtd">
<!-- Creator: CorelDRAW 2018 (64-Bit) -->
<svg xmlns="http://www.w3.org/2000/svg" xml:space="preserve" width="16.9333mm" height="14.8702mm" version="1.1" style="shape-rendering:geometricPrecision; text-rendering:geometricPrecision; image-rendering:optimizeQuality; fill-rule:evenodd; clip-rule:evenodd"
viewBox="0 0 1795.22 1576.5"
 xmlns:xlink="http://www.w3.org/1999/xlink">
 <defs>
  <style type="text/css">
   <![CDATA[
    .fil0 {fill:#EF4B4B;fill-rule:nonzero}
   ]]>
  </style>
 </defs>
 <g id="Слой_x0020_1">
  <metadata id="CorelCorpID_0Corel-Layer"/>
  <path class="fil0" d="M181.31 1005.69c111.43,147.59 256.14,266.21 406.62,373.26 0,0 179.47,124.49 261.91,182.35 30.38,20.27 69.45,20.27 98.44,0 82.44,-57.86 260.41,-182.35 260.41,-182.35 150.51,-107.05 292.3,-224.25 405.22,-373.26 95.44,-127.39 166.38,-277.89 179.38,-437 23.18,-289.41 -163.5,-567.28 -473.18,-567.28 -180.88,0 -340.04,98.44 -421.02,244.62 -83.94,-147.63 -241.7,-246.03 -422.57,-246.03 -308.19,0 -497.77,277.8 -474.6,567.19 13,159.2 82.46,311.11 179.39,438.5z"/>
 </g>
</svg>
