<?xml version="1.0" encoding="UTF-8"?>
<!DOCTYPE svg PUBLIC "-//W3C//DTD SVG 1.1//EN" "http://www.w3.org/Graphics/SVG/1.1/DTD/svg11.dtd">
<!-- Creator: CorelDRAW 2018 (64-Bit) -->
<svg xmlns="http://www.w3.org/2000/svg" xml:space="preserve" width="17.7792mm" height="15.717mm" version="1.1" style="shape-rendering:geometricPrecision; text-rendering:geometricPrecision; image-rendering:optimizeQuality; fill-rule:evenodd; clip-rule:evenodd"
viewBox="0 0 1879.53 1661.53"
 xmlns:xlink="http://www.w3.org/1999/xlink">
 <defs>
  <style type="text/css">
   <![CDATA[
    .str0 {stroke:#465A82;stroke-width:89.51;stroke-miterlimit:22.9256}
    .fil0 {fill:none;fill-rule:nonzero}
   ]]>
  </style>
 </defs>
 <g id="Слой_x0020_1">
  <metadata id="CorelCorpID_0Corel-Layer"/>
  <path class="fil0 str0" d="M225.5 1047.59c111.12,147.17 255.41,265.45 405.46,372.19 0,0 178.95,124.13 261.16,181.83 30.3,20.21 69.25,20.21 98.16,0 82.2,-57.7 259.67,-181.83 259.67,-181.83 150.08,-106.74 291.47,-223.61 404.07,-372.19 95.16,-127.03 165.91,-277.1 178.87,-435.76 23.11,-288.58 -163.03,-565.66 -471.83,-565.66 -180.36,0 -339.07,98.16 -419.82,243.93 -83.71,-147.21 -241.01,-245.33 -421.37,-245.33 -307.31,0 -496.35,277.01 -473.25,565.58 12.96,158.74 82.23,310.22 178.88,437.25z"/>
 </g>
</svg>
