<svg width="1920" height="1113" viewBox="0 0 1920 1113" fill="none" xmlns="http://www.w3.org/2000/svg">
<path d="M176 1011.5C133.6 1067.1 35.6667 1046.67 -8 1029.5V0H1921.5V447.001C1698.67 419.501 1222.2 381.001 1099 447.001C975.8 513.001 1009 612.835 1041 654.502C913.5 611.836 614.3 531.402 437.5 551.002C260.7 570.602 218.5 703.502 219.5 767.502C222.667 825.669 218.4 955.902 176 1011.5Z" fill="#B878AC"/>
<rect x="-925" width="3792" height="632" fill="url(#paint0_linear)"/>
<path d="M1043.58 655C967.288 535.597 1010.05 325.467 1791.42 440.174C2572.79 554.881 2829.38 498.96 2860 456.661" stroke="#59255B" stroke-width="3"/>
<path d="M1046.88 665C995.553 545.597 1024.33 335.467 1550.04 450.174C2075.76 564.881 2248.4 508.96 2269 466.661" stroke="#57C2BB" stroke-width="3"/>
<path d="M1036 653.936C758.822 551.193 210.299 436.619 233.632 800.272C256.964 1163.93 -23.0675 1100.65 -166 1023.56" stroke="#B878AC" stroke-width="3"/>
<path d="M1038 649.217C771.891 553.246 245.272 446.224 267.673 785.908C290.074 1125.59 21.2247 1066.49 -116 994.479" stroke="#57C2BB" stroke-width="3"/>
<circle cx="318" cy="984" r="9" fill="#8DDBD6"/>
<circle cx="333.5" cy="988.5" r="4.5" fill="#8DDBD6"/>
<circle cx="243.5" cy="840.938" r="4.5" fill="#E3B2DA"/>
<path d="M1861.79 1067.34H1889.97" stroke="#5F2659" stroke-width="3" stroke-miterlimit="10" stroke-linecap="round"/>
<path d="M1799.79 1067.34H1827.97" stroke="#5F2659" stroke-width="3" stroke-miterlimit="10" stroke-linecap="round"/>
<path d="M1844.88 1083.43V1110.6" stroke="#5F2659" stroke-width="3" stroke-miterlimit="10" stroke-linecap="round"/>
<path d="M1844.88 1024.11V1051.29" stroke="#5F2659" stroke-width="3" stroke-miterlimit="10" stroke-linecap="round"/>
<path d="M1844.88 1082.3V1098.6" stroke="#5F2659" stroke-width="2" stroke-miterlimit="10" stroke-linecap="round"/>
<path d="M1850.77 1081.2L1857.1 1096.32" stroke="#5F2659" stroke-width="2" stroke-miterlimit="10" stroke-linecap="round"/>
<path d="M1855.81 1078.04L1867.57 1089.77" stroke="#5F2659" stroke-width="2" stroke-miterlimit="10" stroke-linecap="round"/>
<path d="M1859.27 1073.29L1874.71 1079.92" stroke="#5F2659" stroke-width="2" stroke-miterlimit="10" stroke-linecap="round"/>
<path d="M1832.95 1038.08L1839.29 1053.19" stroke="#5F2659" stroke-width="2" stroke-miterlimit="10" stroke-linecap="round"/>
<path d="M1822.66 1044.2L1834.41 1055.93" stroke="#5F2659" stroke-width="2" stroke-miterlimit="10" stroke-linecap="round"/>
<path d="M1815.5 1053.62L1830.94 1060.25" stroke="#5F2659" stroke-width="2" stroke-miterlimit="10" stroke-linecap="round"/>
<path d="M1814.92 1079.05L1830.6 1072.93" stroke="#5F2659" stroke-width="2" stroke-miterlimit="10" stroke-linecap="round"/>
<path d="M1821.74 1088.99L1833.9 1077.67" stroke="#5F2659" stroke-width="2" stroke-miterlimit="10" stroke-linecap="round"/>
<path d="M1831.93 1095.76L1838.81 1080.87" stroke="#5F2659" stroke-width="2" stroke-miterlimit="10" stroke-linecap="round"/>
<path d="M1859.47 1061.45L1875.15 1055.34" stroke="#5F2659" stroke-width="2" stroke-miterlimit="10" stroke-linecap="round"/>
<path d="M1856.32 1056.31L1868.48 1044.98" stroke="#5F2659" stroke-width="2" stroke-miterlimit="10" stroke-linecap="round"/>
<path d="M1851.4 1052.67L1858.3 1037.78" stroke="#5F2659" stroke-width="2" stroke-miterlimit="10" stroke-linecap="round"/>
<path d="M1357.9 991.867H1377.69" stroke="#5F2659" stroke-miterlimit="10" stroke-linecap="round"/>
<path d="M1314.36 991.867H1334.15" stroke="#5F2659" stroke-miterlimit="10" stroke-linecap="round"/>
<path d="M1346.02 1002.94V1021.66" stroke="#5F2659" stroke-miterlimit="10" stroke-linecap="round"/>
<path d="M1346.02 962.086V980.804" stroke="#5F2659" stroke-miterlimit="10" stroke-linecap="round"/>
<path d="M1346.02 1002.16V1013.4" stroke="#5F2659" stroke-miterlimit="10" stroke-linecap="round"/>
<path d="M1350.17 1001.4L1354.61 1011.82" stroke="#5F2659" stroke-miterlimit="10" stroke-linecap="round"/>
<path d="M1353.7 999.234L1361.96 1007.31" stroke="#5F2659" stroke-miterlimit="10" stroke-linecap="round"/>
<path d="M1356.13 995.961L1366.97 1000.53" stroke="#5F2659" stroke-miterlimit="10" stroke-linecap="round"/>
<path d="M1337.65 971.707L1342.1 982.115" stroke="#5F2659" stroke-miterlimit="10" stroke-linecap="round"/>
<path d="M1330.41 975.926L1338.67 984.003" stroke="#5F2659" stroke-miterlimit="10" stroke-linecap="round"/>
<path d="M1325.4 982.41L1336.24 986.977" stroke="#5F2659" stroke-miterlimit="10" stroke-linecap="round"/>
<path d="M1324.99 999.925L1336 995.715" stroke="#5F2659" stroke-miterlimit="10" stroke-linecap="round"/>
<path d="M1329.78 1006.77L1338.32 998.977" stroke="#5F2659" stroke-miterlimit="10" stroke-linecap="round"/>
<path d="M1336.93 1011.44L1341.76 1001.18" stroke="#5F2659" stroke-miterlimit="10" stroke-linecap="round"/>
<path d="M1356.27 987.805L1367.28 983.594" stroke="#5F2659" stroke-miterlimit="10" stroke-linecap="round"/>
<path d="M1354.06 984.267L1362.6 976.461" stroke="#5F2659" stroke-miterlimit="10" stroke-linecap="round"/>
<path d="M1350.6 981.761L1355.44 971.504" stroke="#5F2659" stroke-miterlimit="10" stroke-linecap="round"/>
<circle cx="124" cy="373" r="5" fill="#59255B"/>
<path d="M424.027 932.066H452.415" stroke="#57C2BB" stroke-width="3" stroke-miterlimit="10" stroke-linecap="round"/>
<path d="M361.574 932.066H389.962" stroke="#57C2BB" stroke-width="3" stroke-miterlimit="10" stroke-linecap="round"/>
<path d="M406.991 948.082V975.152" stroke="#57C2BB" stroke-width="3" stroke-miterlimit="10" stroke-linecap="round"/>
<path d="M406.991 889V916.071" stroke="#57C2BB" stroke-width="3" stroke-miterlimit="10" stroke-linecap="round"/>
<path d="M406.991 946.961V963.205" stroke="#57C2BB" stroke-width="2" stroke-miterlimit="10" stroke-linecap="round"/>
<path d="M412.942 945.871L419.315 960.938" stroke="#57C2BB" stroke-width="2" stroke-miterlimit="10" stroke-linecap="round"/>
<path d="M418.012 942.727L429.85 954.408" stroke="#57C2BB" stroke-width="2" stroke-miterlimit="10" stroke-linecap="round"/>
<path d="M421.486 937.984L437.043 944.589" stroke="#57C2BB" stroke-width="2" stroke-miterlimit="10" stroke-linecap="round"/>
<path d="M394.981 902.922L401.368 917.973" stroke="#57C2BB" stroke-width="2" stroke-miterlimit="10" stroke-linecap="round"/>
<path d="M384.62 909.016L396.459 920.698" stroke="#57C2BB" stroke-width="2" stroke-miterlimit="10" stroke-linecap="round"/>
<path d="M377.393 918.391L392.95 924.996" stroke="#57C2BB" stroke-width="2" stroke-miterlimit="10" stroke-linecap="round"/>
<path d="M376.813 943.729L392.611 937.641" stroke="#57C2BB" stroke-width="2" stroke-miterlimit="10" stroke-linecap="round"/>
<path d="M383.684 953.632L395.933 942.355" stroke="#57C2BB" stroke-width="2" stroke-miterlimit="10" stroke-linecap="round"/>
<path d="M393.958 960.372L400.884 945.539" stroke="#57C2BB" stroke-width="2" stroke-miterlimit="10" stroke-linecap="round"/>
<path d="M421.678 926.198L437.475 920.105" stroke="#57C2BB" stroke-width="2" stroke-miterlimit="10" stroke-linecap="round"/>
<path d="M418.529 921.082L430.779 909.793" stroke="#57C2BB" stroke-width="2" stroke-miterlimit="10" stroke-linecap="round"/>
<path d="M413.562 917.448L420.503 902.613" stroke="#57C2BB" stroke-width="2" stroke-miterlimit="10" stroke-linecap="round"/>
<circle cx="249.5" cy="999.938" r="4.5" fill="#E3B2DA"/>
<circle cx="130" cy="532" r="5" fill="#59255B"/>
<path d="M651.836 314.909H668.125" stroke="#5F2659" stroke-width="3" stroke-miterlimit="10" stroke-linecap="round"/>
<path d="M616 314.909H632.289" stroke="#5F2659" stroke-width="3" stroke-miterlimit="10" stroke-linecap="round"/>
<path d="M642.062 325.289V342.833" stroke="#5F2659" stroke-width="3" stroke-miterlimit="10" stroke-linecap="round"/>
<path d="M642.062 287V304.544" stroke="#5F2659" stroke-width="3" stroke-miterlimit="10" stroke-linecap="round"/>
<path d="M642.062 324.556V335.083" stroke="#5F2659" stroke-width="2" stroke-miterlimit="10" stroke-linecap="round"/>
<path d="M645.473 323.851L649.13 333.613" stroke="#5F2659" stroke-width="2" stroke-miterlimit="10" stroke-linecap="round"/>
<path d="M648.383 321.814L655.175 329.384" stroke="#5F2659" stroke-width="2" stroke-miterlimit="10" stroke-linecap="round"/>
<path d="M650.379 318.746L659.305 323.026" stroke="#5F2659" stroke-width="2" stroke-miterlimit="10" stroke-linecap="round"/>
<path d="M635.168 296.017L638.833 305.771" stroke="#5F2659" stroke-width="2" stroke-miterlimit="10" stroke-linecap="round"/>
<path d="M629.219 299.974L636.011 307.544" stroke="#5F2659" stroke-width="2" stroke-miterlimit="10" stroke-linecap="round"/>
<path d="M625.082 306.053L634.008 310.334" stroke="#5F2659" stroke-width="2" stroke-miterlimit="10" stroke-linecap="round"/>
<path d="M624.746 322.461L633.811 318.514" stroke="#5F2659" stroke-width="2" stroke-miterlimit="10" stroke-linecap="round"/>
<path d="M628.691 328.885L635.72 321.577" stroke="#5F2659" stroke-width="2" stroke-miterlimit="10" stroke-linecap="round"/>
<path d="M634.578 333.255L638.553 323.641" stroke="#5F2659" stroke-width="2" stroke-miterlimit="10" stroke-linecap="round"/>
<path d="M650.492 311.103L659.557 307.156" stroke="#5F2659" stroke-width="2" stroke-miterlimit="10" stroke-linecap="round"/>
<path d="M648.676 307.794L655.704 300.479" stroke="#5F2659" stroke-width="2" stroke-miterlimit="10" stroke-linecap="round"/>
<path d="M645.832 305.439L649.815 295.825" stroke="#5F2659" stroke-width="2" stroke-miterlimit="10" stroke-linecap="round"/>
<circle cx="1691.5" cy="580.5" r="2.5" fill="#5F2659"/>
<circle cx="1594" cy="537" r="5" fill="#57C2BB"/>
<circle cx="1755.5" cy="791.5" r="1.5" fill="#57C2BB"/>
<path d="M1395.84 566.199H1414.66" stroke="#B878AC" stroke-width="3" stroke-miterlimit="10" stroke-linecap="round"/>
<path d="M1354.45 566.199H1373.26" stroke="#B878AC" stroke-width="3" stroke-miterlimit="10" stroke-linecap="round"/>
<path d="M1384.55 576.59V594.148" stroke="#B878AC" stroke-width="3" stroke-miterlimit="10" stroke-linecap="round"/>
<path d="M1384.55 538.266V555.824" stroke="#B878AC" stroke-width="3" stroke-miterlimit="10" stroke-linecap="round"/>
<path d="M1384.55 575.859V586.395" stroke="#B878AC" stroke-width="2" stroke-miterlimit="10" stroke-linecap="round"/>
<path d="M1388.49 575.152L1392.72 584.925" stroke="#B878AC" stroke-width="2" stroke-miterlimit="10" stroke-linecap="round"/>
<path d="M1391.85 573.109L1399.7 580.686" stroke="#B878AC" stroke-width="2" stroke-miterlimit="10" stroke-linecap="round"/>
<path d="M1394.16 570.039L1404.47 574.323" stroke="#B878AC" stroke-width="2" stroke-miterlimit="10" stroke-linecap="round"/>
<path d="M1376.59 547.293L1380.82 557.055" stroke="#B878AC" stroke-width="2" stroke-miterlimit="10" stroke-linecap="round"/>
<path d="M1369.72 551.246L1377.57 558.823" stroke="#B878AC" stroke-width="2" stroke-miterlimit="10" stroke-linecap="round"/>
<path d="M1364.94 557.332L1375.25 561.616" stroke="#B878AC" stroke-width="2" stroke-miterlimit="10" stroke-linecap="round"/>
<path d="M1364.55 573.758L1375.02 569.809" stroke="#B878AC" stroke-width="2" stroke-miterlimit="10" stroke-linecap="round"/>
<path d="M1369.11 580.185L1377.22 572.871" stroke="#B878AC" stroke-width="2" stroke-miterlimit="10" stroke-linecap="round"/>
<path d="M1375.91 584.559L1380.5 574.938" stroke="#B878AC" stroke-width="2" stroke-miterlimit="10" stroke-linecap="round"/>
<path d="M1394.29 562.393L1404.76 558.441" stroke="#B878AC" stroke-width="2" stroke-miterlimit="10" stroke-linecap="round"/>
<path d="M1392.2 559.072L1400.32 551.75" stroke="#B878AC" stroke-width="2" stroke-miterlimit="10" stroke-linecap="round"/>
<path d="M1388.91 556.719L1393.51 547.098" stroke="#B878AC" stroke-width="2" stroke-miterlimit="10" stroke-linecap="round"/>
<path d="M1401.69 357.922H1422" stroke="#E3B2DA" stroke-width="3" stroke-miterlimit="10" stroke-linecap="round"/>
<path d="M1357 357.922H1377.31" stroke="#E3B2DA" stroke-width="3" stroke-miterlimit="10" stroke-linecap="round"/>
<path d="M1389.5 370.906V392.856" stroke="#E3B2DA" stroke-width="3" stroke-miterlimit="10" stroke-linecap="round"/>
<path d="M1389.5 323V344.95" stroke="#E3B2DA" stroke-width="3" stroke-miterlimit="10" stroke-linecap="round"/>
<path d="M1389.5 369.996V383.167" stroke="#E3B2DA" stroke-width="2" stroke-miterlimit="10" stroke-linecap="round"/>
<path d="M1393.76 369.109L1398.32 381.326" stroke="#E3B2DA" stroke-width="2" stroke-miterlimit="10" stroke-linecap="round"/>
<path d="M1397.38 366.562L1405.85 376.034" stroke="#E3B2DA" stroke-width="2" stroke-miterlimit="10" stroke-linecap="round"/>
<path d="M1399.87 362.719L1411 368.074" stroke="#E3B2DA" stroke-width="2" stroke-miterlimit="10" stroke-linecap="round"/>
<path d="M1380.9 334.285L1385.48 346.489" stroke="#E3B2DA" stroke-width="2" stroke-miterlimit="10" stroke-linecap="round"/>
<path d="M1373.49 339.227L1381.96 348.699" stroke="#E3B2DA" stroke-width="2" stroke-miterlimit="10" stroke-linecap="round"/>
<path d="M1368.32 346.832L1379.45 352.188" stroke="#E3B2DA" stroke-width="2" stroke-miterlimit="10" stroke-linecap="round"/>
<path d="M1367.91 367.375L1379.21 362.438" stroke="#E3B2DA" stroke-width="2" stroke-miterlimit="10" stroke-linecap="round"/>
<path d="M1372.82 375.405L1381.59 366.262" stroke="#E3B2DA" stroke-width="2" stroke-miterlimit="10" stroke-linecap="round"/>
<path d="M1380.17 380.871L1385.13 368.844" stroke="#E3B2DA" stroke-width="2" stroke-miterlimit="10" stroke-linecap="round"/>
<path d="M1400.01 353.158L1411.31 348.219" stroke="#E3B2DA" stroke-width="2" stroke-miterlimit="10" stroke-linecap="round"/>
<path d="M1397.76 349.013L1406.52 339.859" stroke="#E3B2DA" stroke-width="2" stroke-miterlimit="10" stroke-linecap="round"/>
<path d="M1394.2 346.067L1399.17 334.039" stroke="#E3B2DA" stroke-width="2" stroke-miterlimit="10" stroke-linecap="round"/>
<defs>
<linearGradient id="paint0_linear" x1="971" y1="0" x2="971" y2="632" gradientUnits="userSpaceOnUse">
<stop stop-color="white"/>
<stop offset="1" stop-color="white" stop-opacity="0"/>
</linearGradient>
</defs>
</svg>
