<svg width="140" height="79" viewBox="0 0 140 79" fill="none" xmlns="http://www.w3.org/2000/svg">
<path d="M42.3875 26.6876C49.3579 23.221 69.1116 53.2591 78.1171 68.7115C76.2118 70.8972 26.462 62.55 15.0967 58.1046C3.73142 53.6593 33.6746 31.0208 42.3875 26.6876Z" stroke="#E3B2DA" stroke-width="2"/>
<path d="M101.343 22.8294C84.2673 21.5622 78.9698 52.8804 78.4554 68.6979C123.708 60.2967 132.308 49.8963 130.951 45.7463C128.196 38.6353 118.418 24.0966 101.343 22.8294Z" stroke="#57C2BB" stroke-width="2"/>
<path d="M105.282 3.85294C87.7347 3.35055 80.1011 46.8757 78.4777 68.7011C125.792 53.8344 135.392 38.8823 134.277 33.2645C131.923 23.67 122.828 4.35532 105.282 3.85294Z" stroke="#5F2659" stroke-width="2"/>
<path d="M39.7374 16.2014C48.4512 12.9492 68.8765 49.885 78 68.7594C75.4855 71.0819 16.8357 55.9833 3.70907 49.5951C-9.41752 43.2068 28.8451 20.2667 39.7374 16.2014Z" stroke="#5F2659" stroke-width="2"/>
</svg>
