<svg width="15" height="15" viewBox="0 0 30 30" fill="none" xmlns="http://www.w3.org/2000/svg">
    <path d="M28.9687 13.125L26.25 10.4081V3.75C26.25 2.71875 25.4063 1.875 24.375 1.875H22.5C21.4687 1.875 20.625 2.71875 20.625 3.75V4.78687L16.875 1.04063C16.3631 0.556875 15.8944 0 15 0C14.1056 0 13.6369 0.556875 13.125 1.04063L1.03125 13.125C0.44625 13.7344 0 14.1788 0 15C0 16.0556 0.81 16.875 1.875 16.875H3.75V28.125C3.75 29.1563 4.59375 30 5.625 30H11.25V20.625C11.25 19.5937 12.0937 18.75 13.125 18.75H16.875C17.9063 18.75 18.75 19.5937 18.75 20.625V30H24.375C25.4063 30 26.25 29.1563 26.25 28.125V16.875H28.125C29.19 16.875 30 16.0556 30 15C30 14.1788 29.5537 13.7344 28.9687 13.125Z" fill="#5F2659"/>
</svg>
