<svg width="1920" height="597" viewBox="0 0 1920 597" fill="none" xmlns="http://www.w3.org/2000/svg">
<path d="M149.138 91.4812C161.542 85.4735 196.692 137.531 212.717 164.311C209.327 168.099 120.8 153.632 100.576 145.928C80.3519 138.224 133.634 98.9908 149.138 91.4812Z" stroke="#E3B2DA" stroke-width="2"/>
<circle cx="167.5" cy="142.117" r="2.5" fill="#5F2659"/>
<circle cx="231.5" cy="105.117" r="1.5" fill="#57C2BB"/>
<path d="M216.577 165C140.288 107.706 183.053 6.87751 964.422 61.9183C1745.79 116.959 2002.38 90.1259 2033 69.8292" stroke="#59255B" stroke-width="3"/>
<path d="M227.063 175C155.12 91.7067 195.448 -54.8756 932.301 25.1418C1669.15 105.159 1911.12 66.1495 1940 36.6425" stroke="#57C2BB" stroke-width="3"/>
<path d="M209 168.36C-68.178 66.1971 -616.701 -47.7295 -593.368 313.87C-570.036 675.469 -850.068 612.554 -993 535.897" stroke="#B878AC" stroke-width="3"/>
<path d="M211 163.641C-55.1093 68.2503 -581.728 -38.1243 -559.327 299.505C-536.926 637.135 -805.775 578.391 -943 506.815" stroke="#57C2BB" stroke-width="3"/>
<path d="M254.045 84.7898C223.661 82.5938 214.234 136.87 213.319 164.282C293.843 149.722 309.146 131.698 306.733 124.506C301.831 112.182 284.43 86.9859 254.045 84.7898Z" stroke="#57C2BB" stroke-width="2"/>
<path d="M261.058 51.9056C229.834 51.0349 216.25 126.466 213.362 164.29C297.555 138.526 314.637 112.613 312.654 102.877C308.465 86.2494 292.281 52.7762 261.058 51.9056Z" stroke="#5F2659" stroke-width="2"/>
<path d="M144.35 73.3468C159.95 67.7468 196.517 131.347 212.85 163.847C208.348 167.846 103.35 141.848 79.8499 130.848C56.3499 119.848 124.85 80.3468 144.35 73.3468Z" stroke="#5F2659" stroke-width="2"/>
</svg>
