<?xml version="1.0" encoding="UTF-8"?>
<!DOCTYPE svg PUBLIC "-//W3C//DTD SVG 1.1//EN" "http://www.w3.org/Graphics/SVG/1.1/DTD/svg11.dtd">
<!-- Creator: CorelDRAW 2018 (64-Bit) -->
<svg xmlns="http://www.w3.org/2000/svg" xml:space="preserve" width="75.4235mm" height="44.5166mm" version="1.1" style="shape-rendering:geometricPrecision; text-rendering:geometricPrecision; image-rendering:optimizeQuality; fill-rule:evenodd; clip-rule:evenodd"
viewBox="0 0 1516.72 895.2"
 xmlns:xlink="http://www.w3.org/1999/xlink">
 <defs>
  <style type="text/css">
   <![CDATA[
    .fil0 {fill:#465A82;fill-rule:nonzero}
   ]]>
  </style>
 </defs>
 <g id="Слой_x0020_1">
  <metadata id="CorelCorpID_0Corel-Layer"/>
  <path class="fil0" d="M84.23 894.75l45.74 0 0 -252.39c-15.82,-5.73 -30.54,-7.4 -45.74,-7.73l0 260.13zm1319.49 -0.81l0 -149.46 64 0c7.18,0 13.76,1.47 19.75,4.42 5.98,2.95 11.12,6.81 15.42,11.58 4.3,4.77 7.67,10.18 10.14,16.21 2.46,6.03 3.7,12.14 3.7,18.31 0,6.6 -1.16,12.91 -3.49,18.95 -2.32,6.03 -5.56,11.44 -9.71,16.21 -4.15,4.77 -9.19,8.56 -15.1,11.37 -5.91,2.81 -12.46,4.21 -19.64,4.21l-30.41 0 0 48.21 -34.64 0zm34.64 -78.31l28.3 0c4.08,0 7.61,-1.76 10.56,-5.26 2.96,-3.51 4.44,-8.63 4.44,-15.37 0,-3.51 -0.46,-6.53 -1.37,-9.05 -0.91,-2.53 -2.15,-4.63 -3.7,-6.32 -1.55,-1.68 -3.31,-2.91 -5.28,-3.68 -1.97,-0.77 -3.94,-1.16 -5.91,-1.16l-27.03 0 0 40.84zm-56.39 48l0 30.31 -105.39 0 0 -149.46 103.49 0 0 30.31 -68.85 0 0 29.05 59.14 0 0 28 -59.14 0 0 31.79 70.75 0zm-122.92 -88.83l-45.62 0 0 119.15 -34.64 0 0 -119.15 -45.83 0 0 -30.31 126.09 0 0 30.31zm-266.75 43.15c0,-8.98 1.69,-17.93 5.07,-26.84 3.38,-8.91 8.31,-16.88 14.78,-23.89 6.48,-7.02 14.36,-12.7 23.66,-17.05 9.29,-4.35 19.85,-6.53 31.68,-6.53 14.08,0 26.3,3.02 36.64,9.05 10.35,6.03 18.06,13.89 23.13,23.58l-26.61 18.52c-1.69,-3.93 -3.84,-7.19 -6.44,-9.79 -2.6,-2.6 -5.46,-4.7 -8.55,-6.32 -3.1,-1.61 -6.26,-2.74 -9.5,-3.37 -3.24,-0.63 -6.41,-0.95 -9.5,-0.95 -6.62,0 -12.39,1.33 -17.32,4 -4.93,2.67 -9.01,6.11 -12.25,10.32 -3.24,4.21 -5.63,8.98 -7.18,14.31 -1.55,5.33 -2.32,10.74 -2.32,16.21 0,5.89 0.92,11.58 2.75,17.05 1.83,5.47 4.47,10.32 7.92,14.52 3.45,4.21 7.6,7.54 12.46,10 4.86,2.46 10.31,3.68 16.37,3.68 3.1,0 6.3,-0.39 9.61,-1.16 3.31,-0.77 6.48,-1.96 9.51,-3.58 3.03,-1.61 5.81,-3.72 8.34,-6.31 2.54,-2.6 4.58,-5.79 6.13,-9.58l28.3 16.63c-2.25,5.47 -5.6,10.38 -10.03,14.73 -4.44,4.35 -9.54,8 -15.32,10.95 -5.77,2.95 -11.9,5.19 -18.37,6.74 -6.48,1.54 -12.81,2.31 -19.01,2.31 -10.84,0 -20.8,-2.21 -29.89,-6.63 -9.08,-4.42 -16.9,-10.28 -23.44,-17.58 -6.55,-7.3 -11.62,-15.58 -15.21,-24.84 -3.59,-9.26 -5.39,-18.66 -5.39,-28.21zm-86.59 -73.47l31.26 0 54.7 149.46 -35.48 0 -11.62 -33.47 -46.68 0 -11.41 33.47 -35.48 0 54.71 -149.46zm33.16 92.2l-17.53 -52.84 -17.95 52.84 35.48 0zm-138.13 57.26l0 -89.46 -32.53 65.05 -18.59 0 -32.52 -65.05 0 89.46 -34.64 0 0 -149.46 37.6 0 38.86 78.1 39.07 -78.1 37.38 0 0 149.46 -34.64 0zm-620.46 -219.97l0 220.78 45.75 0 0 -150.01c-7.66,-22.33 -19.57,-42.27 -35.03,-59.65 -3.44,-3.9 -7.01,-7.61 -10.71,-11.12zm100.96 -285.56c31.38,0 59.82,-12.74 80.38,-33.3 20.56,-20.56 33.3,-49 33.29,-80.38 0,-31.39 -12.73,-59.82 -33.29,-80.38l-0.04 0.04c-20.62,-20.6 -49.05,-33.34 -80.33,-33.34 -31.29,0 -59.68,12.72 -80.3,33.3l-0.04 0.04 -0.05 0.04c-20.57,20.62 -33.29,49 -33.29,80.29 0,31.29 12.73,59.72 33.34,80.33l-0.05 0.04c20.56,20.56 48.99,33.29 80.38,33.3zm194.25 -307.94c-49.7,-49.7 -118.4,-80.46 -194.26,-80.46 -1.07,0 -2.14,0.01 -3.2,0.02l-248.65 0 0 0.24 -29.08 0 0 540.58 45.74 0 0 -495.07 83.3 0 -0.51 0.34 139.63 0c3.3,-0.18 6.61,-0.3 9.95,-0.34l5.76 0 0.02 0c62.05,0.79 118.15,26.26 158.93,67.04 41.44,41.44 67.07,98.68 67.07,161.91 0,63.23 -25.64,120.48 -67.07,161.91 -41.43,41.44 -98.68,67.07 -161.91,67.07 -19.02,0 -37.52,-2.33 -55.2,-6.7l0 -33.15c17.52,5.1 36.05,7.85 55.21,7.85 54.26,0 103.49,-22.05 139.18,-57.7l0.04 -0.04 0.04 -0.05c35.65,-35.69 57.7,-84.92 57.7,-139.18 0,-54.39 -22.05,-103.64 -57.7,-139.29l-0.05 0.05c-35.69,-35.67 -84.93,-57.74 -139.23,-57.74 -54.28,0 -103.5,22.05 -139.19,57.69l-0.05 0.05 -0.05 0.04c-35.65,35.69 -57.7,84.92 -57.7,139.19l-0.01 0 0 266.11 1.86 0c14.51,0 28.45,1.31 41.78,3.88l0 -0.17 2.11 0.41 0 -144.15c3.81,4.56 7.81,8.95 12.01,13.15l-0.05 0.05c11.46,11.46 24.33,21.52 38.32,29.88l0 118.64c8.2,4.23 16.11,9.05 23.73,14.43l-0.02 0.02c7.56,5.37 14.92,11.33 22.04,17.89l0 -50.98c17.83,3.64 36.29,5.55 55.2,5.55 75.86,0 144.57,-30.76 194.26,-80.47 49.7,-49.7 80.46,-118.4 80.46,-194.26 0,-75.86 -30.75,-144.55 -80.46,-194.26zm-307.31 498.38c-8.52,-3.68 -17.29,-6.73 -26.21,-9.11l-0.05 0c-4.63,-1.24 -9.35,-2.31 -14.15,-3.22l0 0.17c-13.32,-2.57 -27.27,-3.88 -41.79,-3.88l-85.97 -0 0 332.17 48.69 0 0 -240.74 0 -28.64 0 -12.32 12.31 0 24.97 0c11.33,0 22.5,1.12 33.49,3.34 10.87,2.2 21.43,5.51 31.6,9.91 10.19,4.4 19.81,9.8 28.81,16.15l0 0.05c9.1,6.43 17.64,13.84 25.58,22.21 7.94,8.31 14.93,17.1 20.93,26.36 4.53,7 8.49,14.23 11.89,21.64l0.29 -0 3.09 7.79c2.26,5.71 4.2,11.49 5.8,17.27l0 0.05c0.69,2.52 1.33,5.05 1.91,7.61l0.76 -0 53.33 0 0.76 0c0.58,-2.55 1.22,-5.08 1.91,-7.6l0 -0.05c1.59,-5.78 3.53,-11.56 5.79,-17.27l3.09 -7.8 0.3 0c3.4,-7.41 7.36,-14.64 11.89,-21.64 6,-9.26 12.98,-18.05 20.92,-26.36 7.94,-8.37 16.48,-15.77 25.58,-22.2l0 -0.05c9,-6.35 18.63,-11.75 28.81,-16.15 10.18,-4.4 20.74,-7.72 31.6,-9.91 10.99,-2.23 22.17,-3.34 33.5,-3.34l24.97 -0 12.31 0 0 12.32 0 28.64 0 240.51 48.68 0 0 -331.94 -85.97 0c-14.53,0 -28.47,1.31 -41.79,3.89l0 -0.17c-4.8,0.91 -9.52,1.98 -14.14,3.22l-0.05 0c-8.93,2.37 -17.69,5.43 -26.21,9.11 -12.52,5.39 -24.44,12.12 -35.71,20.1l0.02 0.02c-11.47,8.13 -22.45,17.64 -32.86,28.48l-2.7 2.87 -2.07 2.32 -2.6 2.91 -0.02 -0.02 -1.88 2.18 0.01 0.01 -22.43 26.45 -8.35 9.85 -8.36 -9.85 -22.44 -26.45 0.01 -0.01 -1.88 -2.18 -0.02 0.02 -2.6 -2.91 -2.07 -2.32 -2.71 -2.88c-10.41,-10.84 -21.39,-20.35 -32.86,-28.48l0.02 -0.02c-11.27,-7.98 -23.19,-14.71 -35.71,-20.1zm1310.67 -45.77c0,3.57 -0.76,6.84 -2.28,9.81 -1.52,2.97 -3.66,5.51 -6.42,7.62 -2.77,2.11 -6.05,3.75 -9.84,4.94 -3.79,1.19 -8.02,1.78 -12.69,1.78 -4.66,0 -8.89,-0.59 -12.69,-1.78 -3.8,-1.19 -7.08,-2.84 -9.84,-4.94 -2.77,-2.11 -4.91,-4.65 -6.42,-7.62 -1.52,-2.97 -2.28,-6.24 -2.28,-9.81l16.1 0c0,1.41 0.41,2.73 1.22,3.97 0.81,1.24 1.9,2.32 3.25,3.24 1.36,0.92 2.96,1.65 4.8,2.19 1.84,0.54 3.8,0.81 5.86,0.81 3.91,0 7.29,-0.97 10.17,-2.92 2.87,-1.94 4.58,-4.38 5.12,-7.3l15.94 0zm-57.58 107.16l54.33 -73.77 19.85 0 0 115.11 -26.68 0 0 -71.98 -53.68 71.98 -20.66 0 0 -115.11 26.84 0 0 73.77zm-124.11 0l54.33 -73.77 19.85 0 0 115.11 -26.68 0 0 -71.98 -53.68 71.98 -20.66 0 0 -115.11 26.84 0 0 73.77zm-109.14 -28.05l6.02 0 33.67 -45.72 30.09 0 -41.48 55.61 45.22 59.5 -29.77 0 -35.3 -45.23 -8.46 0 0 45.23 -26.68 0 0 -115.11 26.68 0 0 45.72zm-145.74 10.86c0,-6.92 1.3,-13.81 3.9,-20.67 2.6,-6.86 6.4,-13 11.39,-18.4 4.99,-5.41 11.06,-9.78 18.22,-13.13 7.16,-3.35 15.29,-5.03 24.4,-5.03 10.84,0 20.25,2.32 28.22,6.97 7.97,4.65 13.91,10.7 17.81,18.16l-20.5 14.27c-1.3,-3.03 -2.96,-5.54 -4.96,-7.54 -2,-2 -4.2,-3.62 -6.59,-4.86 -2.39,-1.24 -4.83,-2.11 -7.32,-2.59 -2.49,-0.49 -4.93,-0.73 -7.32,-0.73 -5.1,0 -9.54,1.03 -13.34,3.08 -3.79,2.05 -6.94,4.7 -9.43,7.94 -2.49,3.24 -4.34,6.92 -5.53,11.02 -1.19,4.11 -1.79,8.27 -1.79,12.48 0,4.54 0.71,8.92 2.11,13.13 1.41,4.21 3.44,7.95 6.1,11.19 2.65,3.24 5.86,5.81 9.6,7.7 3.74,1.89 7.94,2.84 12.61,2.84 2.39,0 4.85,-0.3 7.4,-0.89 2.55,-0.6 4.99,-1.51 7.32,-2.76 2.33,-1.24 4.47,-2.86 6.43,-4.86 1.95,-2 3.52,-4.46 4.72,-7.38l21.8 12.81c-1.74,4.22 -4.31,8 -7.73,11.35 -3.41,3.35 -7.35,6.16 -11.79,8.43 -4.44,2.27 -9.16,4 -14.15,5.19 -4.99,1.19 -9.87,1.78 -14.64,1.78 -8.35,0 -16.02,-1.7 -23.02,-5.11 -7,-3.4 -13.01,-7.92 -18.06,-13.54 -5.04,-5.62 -8.95,-12 -11.71,-19.13 -2.77,-7.13 -4.15,-14.37 -4.15,-21.72zm-42.78 58.53l0 -68.9 -25.05 50.09 -14.31 0 -25.05 -50.09 0 68.9 -26.68 0 0 -115.11 28.95 0 29.93 60.15 30.09 -60.15 28.79 0 0 115.11 -26.68 0zm-188.36 -41.34l54.33 -73.77 19.84 0 0 115.11 -26.68 0 0 -71.98 -53.68 71.98 -20.66 0 0 -115.11 26.84 0 0 73.77zm-128.66 41.34l0 -115.11 49.29 0c5.53,0 10.6,1.13 15.21,3.4 4.61,2.27 8.57,5.24 11.87,8.92 3.31,3.67 5.91,7.84 7.81,12.48 1.9,4.65 2.85,9.35 2.85,14.1 0,5.08 -0.9,9.94 -2.69,14.59 -1.79,4.65 -4.28,8.81 -7.48,12.48 -3.2,3.68 -7.08,6.59 -11.63,8.76 -4.56,2.16 -9.6,3.24 -15.13,3.24l-23.42 0 0 37.13 -26.68 0zm26.68 -60.31l21.8 0c3.14,0 5.86,-1.35 8.13,-4.05 2.27,-2.7 3.41,-6.65 3.41,-11.83 0,-2.7 -0.35,-5.03 -1.06,-6.97 -0.71,-1.94 -1.65,-3.57 -2.85,-4.86 -1.19,-1.3 -2.55,-2.24 -4.07,-2.84 -1.52,-0.59 -3.03,-0.89 -4.55,-0.89l-20.82 0 0 31.45zm-534.84 -239.62l0 0 -0.09 0c-27.31,-27.3 -44.21,-65.11 -44.21,-106.92 0,-41.82 16.9,-79.64 44.21,-106.94l0.09 -0.09c27.3,-27.31 65.11,-44.21 106.94,-44.21 41.82,0 79.62,16.9 106.92,44.21l0 0.09c27.36,27.36 44.3,65.17 44.3,106.93 0,41.81 -16.89,79.62 -44.2,106.92l-0.09 0.09c-27.3,27.31 -65.11,44.2 -106.92,44.21 -41.76,0 -79.57,-16.94 -106.94,-44.3zm56.76 -157.02l0 0 0.08 -0.08c12.77,-12.76 30.48,-20.67 50.09,-20.67 19.61,0 37.32,7.9 50.09,20.67l0 0.08c12.81,12.82 20.75,30.53 20.75,50.09 0,19.55 -7.94,37.27 -20.75,50.09 -12.81,12.81 -30.53,20.75 -50.09,20.75 -19.56,0 -37.28,-7.94 -50.09,-20.75l-0.08 0c-12.76,-12.77 -20.67,-30.48 -20.67,-50.09 0,-19.62 7.91,-37.33 20.67,-50.09z"/>
 </g>
</svg>
