<?xml version="1.0" encoding="UTF-8"?>
<!DOCTYPE svg PUBLIC "-//W3C//DTD SVG 1.1//EN" "http://www.w3.org/Graphics/SVG/1.1/DTD/svg11.dtd">
<!-- Creator: CorelDRAW 2018 (64-Bit) -->
<svg xmlns="http://www.w3.org/2000/svg" xml:space="preserve" width="auto" height="116" version="1.1" style="shape-rendering:geometricPrecision; text-rendering:geometricPrecision; image-rendering:optimizeQuality; fill-rule:evenodd; clip-rule:evenodd"
viewBox="0 0 233.19 233.19"
 xmlns:xlink="http://www.w3.org/1999/xlink">
 <defs>
  <style type="text/css">
   <![CDATA[
    .fil5 {fill:black;fill-rule:nonzero}
    .fil1 {fill:#2D3F63;fill-rule:nonzero}
    .fil0 {fill:#465A82;fill-rule:nonzero}
    .fil2 {fill:#69D6F4;fill-rule:nonzero}
    .fil3 {fill:#FCD770;fill-rule:nonzero}
    .fil4 {fill:#FFEAA7;fill-rule:nonzero}
    .fil6 {fill:black;fill-rule:nonzero}
   ]]>
  </style>
 </defs>
 <g id="Слой_x0020_1">
  <metadata id="CorelCorpID_0Corel-Layer"/>
  <g id="_1113306544">
   <path class="fil0" d="M214.38 3.76l-105.31 0c-8.31,0 -15.04,6.73 -15.04,15.04l0 173.01 120.35 0c8.31,0 15.04,-6.73 15.04,-15.04l0 -157.97c0,-8.31 -6.73,-15.04 -15.04,-15.04z"/>
   <path class="fil1" d="M214.38 78.98l0 30.09c0,4.14 -3.38,7.52 -7.52,7.52l-30.09 0c-4.14,0 -7.52,-3.38 -7.52,-7.52l0 -30.09c0,-4.14 3.38,-7.52 7.52,-7.52l30.09 0c4.14,0 7.52,3.38 7.52,7.52z"/>
   <path class="fil1" d="M214.38 139.16l0 30.09c0,4.14 -3.38,7.52 -7.52,7.52l-30.09 0c-4.14,0 -7.52,-3.38 -7.52,-7.52l0 -30.09c0,-4.14 3.38,-7.52 7.52,-7.52l30.09 0c4.14,0 7.52,3.38 7.52,7.52z"/>
   <path class="fil1" d="M154.2 139.16l0 30.09c0,4.14 -3.38,7.52 -7.52,7.52l-9.25 0c1.17,-4.85 1.73,-9.89 1.73,-15.04 0,-10.83 -2.56,-21.02 -7.07,-30.09l14.59 0c4.14,0 7.52,3.38 7.52,7.52z"/>
   <path class="fil1" d="M154.2 78.98l0 30.09c0,4.14 -3.38,7.52 -7.52,7.52l-24.79 0c-0.83,-0.94 -1.69,-1.84 -2.56,-2.74 -3.12,-3.12 -6.58,-5.94 -10.27,-8.39l0 -26.48c0,-4.14 3.38,-7.52 7.52,-7.52l30.09 0c4.14,0 7.52,3.38 7.52,7.52z"/>
   <path class="fil2" d="M214.38 26.33l0 22.57c0,4.14 -3.38,7.52 -7.52,7.52l-90.27 0c-4.14,0 -7.52,-3.38 -7.52,-7.52l0 -22.57c0,-4.14 3.38,-7.52 7.52,-7.52l90.27 0c4.14,0 7.52,3.38 7.52,7.52z"/>
   <path class="fil3" d="M139.16 161.73c0,37.39 -30.31,67.7 -67.7,67.7 -37.39,0 -67.7,-30.31 -67.7,-67.7 0,-37.39 30.31,-67.7 67.7,-67.7 37.39,0 67.7,30.31 67.7,67.7z"/>
   <path class="fil4" d="M101.81 128.29c9.06,8.27 14.78,20.2 14.78,33.44 0,12.49 -5.04,23.77 -13.2,31.93 -8.16,8.16 -19.44,13.2 -31.93,13.2 -12.49,0 -23.77,-5.04 -31.93,-13.2 -8.16,-8.16 -13.2,-19.44 -13.2,-31.93 0,-12.49 5.04,-23.77 13.2,-31.93 8.16,-8.16 19.44,-13.2 31.93,-13.2 11.7,0 22.34,4.44 30.35,11.7z"/>
   <polygon class="fil5" points="46.21,181.62 91.34,136.49 96.66,141.81 51.53,186.94 "/>
   <path class="fil6" d="M56.42 157.96c6.22,0 11.28,-5.06 11.28,-11.28 0,-6.22 -5.06,-11.28 -11.28,-11.28 -6.22,0 -11.28,5.06 -11.28,11.28 0,6.22 5.06,11.28 11.28,11.28zm0 -15.04c2.08,0 3.76,1.69 3.76,3.76 0,2.08 -1.69,3.76 -3.76,3.76 -2.08,0 -3.76,-1.69 -3.76,-3.76 0,-2.08 1.68,-3.76 3.76,-3.76z"/>
   <path class="fil6" d="M86.5 165.49c-6.22,0 -11.28,5.06 -11.28,11.28 0,6.22 5.06,11.28 11.28,11.28 6.22,0 11.28,-5.06 11.28,-11.28 0,-6.22 -5.06,-11.28 -11.28,-11.28zm0 15.04c-2.08,0 -3.76,-1.68 -3.76,-3.76 0,-2.08 1.69,-3.76 3.76,-3.76 2.08,0 3.76,1.69 3.76,3.76 0,2.08 -1.69,3.76 -3.76,3.76z"/>
   <path class="fil5" d="M214.38 0l-105.31 0c-10.37,0 -18.81,8.44 -18.81,18.81l0 74.06c-6,-1.64 -12.29,-2.6 -18.81,-2.6 -39.41,0 -71.46,32.06 -71.46,71.46 0,39.41 32.06,71.46 71.46,71.46 27.16,0 50.83,-15.24 62.91,-37.61l80.01 0c10.37,0 18.81,-8.44 18.81,-18.81l0 -157.97c0,-10.37 -8.44,-18.81 -18.81,-18.81zm-101.55 161.73c0,22.81 -18.56,41.37 -41.37,41.37 -22.81,0 -41.37,-18.56 -41.37,-41.37 0,-22.81 18.56,-41.37 41.37,-41.37 22.81,0 41.37,18.56 41.37,41.37zm-45.13 -48.7c-10.65,0.82 -20.35,5.04 -28.01,11.62l-10.63 -10.63c10.42,-9.27 23.85,-15.16 38.65,-16.03l0 15.04 -0.01 0zm-33.33 16.93c-6.57,7.66 -10.8,17.36 -11.62,28.01l-15.04 0c0.87,-14.79 6.76,-28.23 16.03,-38.64l10.63 10.63zm-11.62 35.53c0.82,10.65 5.04,20.35 11.62,28.01l-10.63 10.63c-9.27,-10.41 -15.16,-23.85 -16.03,-38.64l15.04 0zm16.93 33.33c7.66,6.57 17.36,10.8 28.01,11.62l0 15.04c-14.79,-0.87 -28.23,-6.76 -38.64,-16.03l10.63 -10.63zm35.53 11.62c10.65,-0.82 20.35,-5.04 28.01,-11.62l10.63 10.63c-10.42,9.27 -23.85,15.16 -38.65,16.03l0 -15.04 0 0zm33.33 -16.93c6.57,-7.66 10.8,-17.36 11.62,-28.01l15.04 0c-0.87,14.79 -6.76,28.23 -16.03,38.64l-10.63 -10.63zm29.29 -58.1l8.85 0c2.08,0 3.76,1.69 3.76,3.76l0 30.09c0,2.08 -1.68,3.76 -3.76,3.76l-4.74 0c0.59,-3.69 0.98,-7.44 0.98,-11.28 0,-9.3 -1.84,-18.17 -5.09,-26.33zm-2.63 22.57l-15.04 0c-0.82,-10.65 -5.04,-20.35 -11.62,-28.01l10.63 -10.63c9.27,10.41 15.16,23.85 16.03,38.64zm-22.38 -54.4l0 -24.59c0,-2.08 1.68,-3.76 3.76,-3.76l30.09 0c2.08,0 3.76,1.69 3.76,3.76l0 30.09c0,2.08 -1.68,3.76 -3.76,3.76l-23.25 0c-3.22,-3.42 -6.76,-6.53 -10.6,-9.26zm1.03 10.43l-10.63 10.63c-7.66,-6.57 -17.36,-10.8 -28.01,-11.61l0 -15.04c14.79,0.87 28.22,6.76 38.64,16.03zm111.8 62.77c0,6.22 -5.06,11.28 -11.28,11.28l-76.55 0c0.97,-2.44 1.79,-4.96 2.49,-7.52l6.36 0c6.22,0 11.28,-5.06 11.28,-11.28l0 -30.09c0,-6.22 -5.06,-11.28 -11.28,-11.28l-12.31 0c-1.42,-2.62 -3.03,-5.11 -4.76,-7.52l17.06 0c6.22,0 11.28,-5.06 11.28,-11.28l0 -30.09c0,-6.22 -5.06,-11.28 -11.28,-11.28l-30.09 0c-6.22,0 -11.28,5.06 -11.28,11.28l0 19.83c-2.42,-1.31 -4.95,-2.43 -7.52,-3.46l0 -76.55c0,-6.22 5.06,-11.28 11.28,-11.28l105.31 0c6.22,0 11.28,5.06 11.28,11.28l0 157.97z"/>
   <path class="fil5" d="M206.86 15.04l-90.27 0c-6.22,0 -11.28,5.06 -11.28,11.28l0 22.57c0,6.22 5.06,11.28 11.28,11.28l90.27 0c6.22,0 11.28,-5.06 11.28,-11.28l0 -22.57c0,-6.22 -5.06,-11.28 -11.28,-11.28zm3.76 33.85c0,2.08 -1.69,3.76 -3.76,3.76l-90.27 0c-2.08,0 -3.76,-1.68 -3.76,-3.76l0 -22.57c0,-2.08 1.68,-3.76 3.76,-3.76l90.27 0c2.08,0 3.76,1.69 3.76,3.76l0 22.57z"/>
   <path class="fil5" d="M206.86 67.7l-30.09 0c-6.22,0 -11.28,5.06 -11.28,11.28l0 30.09c0,6.22 5.06,11.28 11.28,11.28l30.09 0c6.22,0 11.28,-5.06 11.28,-11.28l0 -30.09c0,-6.22 -5.06,-11.28 -11.28,-11.28zm3.76 41.37c0,2.08 -1.69,3.76 -3.76,3.76l-30.09 0c-2.08,0 -3.76,-1.69 -3.76,-3.76l0 -30.09c0,-2.08 1.69,-3.76 3.76,-3.76l30.09 0c2.08,0 3.76,1.69 3.76,3.76l0 30.09z"/>
   <path class="fil5" d="M206.86 127.88l-30.09 0c-6.22,0 -11.28,5.06 -11.28,11.28l0 30.09c0,6.22 5.06,11.28 11.28,11.28l30.09 0c6.22,0 11.28,-5.06 11.28,-11.28l0 -30.09c0,-6.22 -5.06,-11.28 -11.28,-11.28zm3.76 41.37c0,2.08 -1.69,3.76 -3.76,3.76l-30.09 0c-2.08,0 -3.76,-1.68 -3.76,-3.76l0 -30.09c0,-2.08 1.69,-3.76 3.76,-3.76l30.09 0c2.08,0 3.76,1.69 3.76,3.76l0 30.09z"/>
  </g>
 </g>
</svg>
