<?xml version="1.0" encoding="UTF-8"?>
<!DOCTYPE svg PUBLIC "-//W3C//DTD SVG 1.1//EN" "http://www.w3.org/Graphics/SVG/1.1/DTD/svg11.dtd">
<!-- Creator: CorelDRAW 2018 (64-Bit) -->
<svg xmlns="http://www.w3.org/2000/svg" xml:space="preserve" width="25.4mm" height="25.4mm" version="1.1" style="shape-rendering:geometricPrecision; text-rendering:geometricPrecision; image-rendering:optimizeQuality; fill-rule:evenodd; clip-rule:evenodd"
viewBox="0 0 1357.31 1357.31"
 xmlns:xlink="http://www.w3.org/1999/xlink">
 <defs>
  <style type="text/css">
   <![CDATA[
    .fil0 {fill:#9D9D9D}
    .fil1 {fill:#9D9D9D;fill-rule:nonzero}
   ]]>
  </style>
 </defs>
 <g id="Слой_x0020_1">
  <metadata id="CorelCorpID_0Corel-Layer"/>
  <g id="_1103393920">
   <path class="fil0" d="M420.76 420.76l0 0c17.37,-17.37 45.79,-17.37 63.16,0l194.73 194.74 194.73 -194.74c17.37,-17.37 45.79,-17.37 63.16,0l0 0c17.37,17.37 17.37,45.79 0,63.16l-194.73 194.74 194.73 194.73c17.37,17.37 17.37,45.79 0,63.16l0 0c-17.37,17.37 -45.79,17.37 -63.16,0l-194.73 -194.74 -194.73 194.74c-17.37,17.37 -45.79,17.37 -63.16,0l0 0c-17.37,-17.37 -17.37,-45.79 0,-63.16l194.73 -194.73 -194.73 -194.74c-17.37,-17.37 -17.37,-45.79 0,-63.16z"/>
   <path class="fil1" d="M678.65 0c-374.83,0 -678.65,303.82 -678.65,678.65 0,374.83 303.82,678.65 678.65,678.65 374.78,0 678.65,-303.87 678.65,-678.65 0,-374.84 -303.87,-678.65 -678.65,-678.65zm0 1272.47c-327.95,0 -593.81,-265.86 -593.81,-593.82 0,-327.95 265.86,-593.81 593.81,-593.81 327.95,0 593.82,265.86 593.82,593.81 0,327.95 -265.86,593.82 -593.82,593.82z"/>
  </g>
 </g>
</svg>
