<?xml version="1.0" encoding="UTF-8"?>
<!DOCTYPE svg PUBLIC "-//W3C//DTD SVG 1.1//EN" "http://www.w3.org/Graphics/SVG/1.1/DTD/svg11.dtd">
<!-- Creator: CorelDRAW 2018 (64-Bit) -->
<svg xmlns="http://www.w3.org/2000/svg" xml:space="preserve" width="auto" height="116" version="1.1" style="shape-rendering:geometricPrecision; text-rendering:geometricPrecision; image-rendering:optimizeQuality; fill-rule:evenodd; clip-rule:evenodd"
viewBox="0 0 167.39 187.42"
 xmlns:xlink="http://www.w3.org/1999/xlink">
 <defs>
  <style type="text/css">
   <![CDATA[
    .fil2 {fill:#E9466D;fill-rule:nonzero}
    .fil5 {fill:black;fill-rule:nonzero}
    .fil0 {fill:#465A82;fill-rule:nonzero}
    .fil1 {fill:#FAF7F5;fill-rule:nonzero}
    .fil3 {fill:#FFE6B4;fill-rule:nonzero}
    .fil4 {fill:black;fill-rule:nonzero}
   ]]>
  </style>
 </defs>
 <g id="Слой_x0020_1">
  <metadata id="CorelCorpID_0Corel-Layer"/>
  <g id="_1113324176">
   <path class="fil0" d="M128.94 73.25c-3.57,0 -7.01,-0.54 -10.25,-1.54l0 82.69c0,5.34 -4.33,9.66 -9.66,9.66l-80.43 0 0 10.03c0,5.34 4.33,9.66 9.66,9.66l95.71 0c5.33,0 9.66,-4.33 9.66,-9.66l0 -104.09c-4.46,2.08 -9.44,3.24 -14.68,3.24z"/>
   <path class="fil1" d="M106.11 11.58l-92.79 0c-5.34,0 -9.66,4.33 -9.66,9.66l0 133.16c0,5.34 4.32,9.66 9.66,9.66l95.71 0c5.33,0 9.66,-4.33 9.66,-9.66l0 -81.96 -12.58 -60.86z"/>
   <path class="fil2" d="M163.73 38.46c0,19.22 -15.58,34.8 -34.79,34.8 -19.21,0 -34.79,-15.58 -34.79,-34.8 0,-19.22 15.58,-34.8 34.79,-34.8 19.21,0 34.79,15.58 34.79,34.8z"/>
   <polygon class="fil3" points="28.19,55.95 94.15,55.95 94.15,40.49 28.19,40.49 "/>
   <path class="fil4" d="M128.96 62.35c-2.02,0 -3.66,-1.64 -3.66,-3.66l0 -25.03c0,-2.02 1.64,-3.66 3.66,-3.66 2.02,0 3.66,1.64 3.66,3.66l0 25.03c0,2.02 -1.64,3.66 -3.66,3.66z"/>
   <path class="fil4" d="M132.6 21.88c0,2.02 -1.64,3.66 -3.66,3.66 -2.02,0 -3.66,-1.64 -3.66,-3.66 0,-2.02 1.64,-3.66 3.66,-3.66 2.02,0 3.66,1.64 3.66,3.66z"/>
   <path class="fil5" d="M167.39 38.46c0,-21.2 -17.25,-38.46 -38.45,-38.46 -8.78,0 -16.87,2.96 -23.35,7.92l-92.27 0c-7.35,0 -13.32,5.98 -13.32,13.32l0 133.16c0,7.35 5.97,13.32 13.32,13.32l11.61 0 0 6.37c0,7.35 5.98,13.32 13.32,13.32l95.71 0c7.35,0 13.32,-5.98 13.32,-13.32l0 -50.77c0,-2.02 -1.64,-3.66 -3.66,-3.66 -2.02,0 -3.66,1.64 -3.66,3.66l0 50.77c0,3.31 -2.69,6 -6,6l-95.71 0c-3.31,0 -6,-2.69 -6,-6l0 -6.37 76.77 0c7.35,0 13.32,-5.98 13.32,-13.32l0 -78.06c2.14,0.37 4.35,0.57 6.59,0.57 3.83,0 7.53,-0.56 11.02,-1.61l0 14.93c0,2.02 1.64,3.66 3.66,3.66 2.02,0 3.66,-1.64 3.66,-3.66l0 -17.98c11.97,-6.53 20.1,-19.22 20.1,-33.79zm-52.36 115.95c0,3.31 -2.69,6 -6,6l-95.71 0c-3.31,0 -6,-2.69 -6,-6l0 -133.16c0,-3.31 2.69,-6 6,-6l84.99 0c-4.6,6.05 -7.44,13.5 -7.78,21.59l-62.34 0c-2.02,0 -3.66,1.64 -3.66,3.66l0 15.46c0,2.02 1.64,3.66 3.66,3.66l65.96 0c0.83,0 1.6,-0.28 2.22,-0.75 4.37,6.96 10.91,12.42 18.66,15.44l0 80.1zm-24.53 -110.25l0 8.14 -58.64 0 0 -8.14 58.64 0zm38.45 25.44c-17.16,0 -31.13,-13.97 -31.13,-31.14 0,-17.17 13.96,-31.14 31.13,-31.14 17.16,0 31.13,13.97 31.13,31.14 0,17.17 -13.96,31.14 -31.13,31.14z"/>
   <path class="fil4" d="M143.62 110.37c-1.51,0 -2.89,-0.96 -3.42,-2.37 -0.55,-1.44 -0.1,-3.14 1.1,-4.12 1.2,-0.98 2.93,-1.1 4.25,-0.28 1.32,0.82 1.99,2.43 1.64,3.94 -0.39,1.64 -1.89,2.83 -3.57,2.83z"/>
   <path class="fil4" d="M94.15 79.67l-65.96 0c-2.02,0 -3.66,-1.64 -3.66,-3.66 0,-2.02 1.64,-3.66 3.66,-3.66l65.96 0c2.02,0 3.66,1.64 3.66,3.66 0,2.02 -1.64,3.66 -3.66,3.66z"/>
   <path class="fil4" d="M94.15 97.03l-65.96 0c-2.02,0 -3.66,-1.64 -3.66,-3.66 0,-2.02 1.64,-3.66 3.66,-3.66l65.96 0c2.02,0 3.66,1.64 3.66,3.66 0,2.02 -1.64,3.66 -3.66,3.66z"/>
   <path class="fil4" d="M94.15 114.39l-65.96 0c-2.02,0 -3.66,-1.64 -3.66,-3.66 0,-2.02 1.64,-3.66 3.66,-3.66l65.96 0c2.02,0 3.66,1.64 3.66,3.66 0,2.02 -1.64,3.66 -3.66,3.66z"/>
   <path class="fil4" d="M94.15 131.75l-65.96 0c-2.02,0 -3.66,-1.64 -3.66,-3.66 0,-2.02 1.64,-3.66 3.66,-3.66l65.96 0c2.02,0 3.66,1.64 3.66,3.66 0,2.02 -1.64,3.66 -3.66,3.66z"/>
  </g>
 </g>
</svg>
