<?xml version="1.0" encoding="UTF-8"?>
<!DOCTYPE svg PUBLIC "-//W3C//DTD SVG 1.1//EN" "http://www.w3.org/Graphics/SVG/1.1/DTD/svg11.dtd">
<!-- Creator: CorelDRAW 2018 (64-Bit) -->
<svg xmlns="http://www.w3.org/2000/svg" xml:space="preserve" width="180" height="auto" version="1.1" style="shape-rendering:geometricPrecision; text-rendering:geometricPrecision; image-rendering:optimizeQuality; fill-rule:evenodd; clip-rule:evenodd"
viewBox="0 0 410.63 264.89"
 xmlns:xlink="http://www.w3.org/1999/xlink">
 <defs>
  <style type="text/css">
   <![CDATA[
    .fil6 {fill:#E9466D;fill-rule:nonzero}
    .fil7 {fill:#D22F56;fill-rule:nonzero}
    .fil8 {fill:black;fill-rule:nonzero}
    .fil1 {fill:#2D3F63;fill-rule:nonzero}
    .fil5 {fill:#34AAC7;fill-rule:nonzero}
    .fil0 {fill:#465A82;fill-rule:nonzero}
    .fil4 {fill:#54C9EB;fill-rule:nonzero}
    .fil3 {fill:#D0EDF5;fill-rule:nonzero}
    .fil2 {fill:#E9FBFF;fill-rule:nonzero}
   ]]>
  </style>
 </defs>
 <g id="Слой_x0020_1">
  <metadata id="CorelCorpID_0Corel-Layer"/>
  <g id="_1114367120">
   <polygon class="fil0" points="380.47,173.65 395.58,212.14 384.91,239.62 371.59,221.86 361.23,208.02 335.11,212.14 325.49,238.25 223.79,258.87 174,206.64 135.82,216.26 117.95,194.27 60.22,188.77 60.22,203.89 27.96,236.88 17.62,191.52 27.96,164.36 6.02,157.16 28.16,66.67 71.22,40.32 113.56,60.02 274.46,60.78 352.47,52.84 378.41,24.59 395.46,6.01 404.61,82.71 384.91,106.07 348.85,130.4 351.6,170.9 "/>
   <path class="fil1" d="M380.47 173.65l15.12 38.49 -10.67 27.49 -13.32 -17.77 4.73 -10.3 -8.65 -20.64 -22.76 -1.38c-6.46,-0.84 -11.46,-6.05 -12.05,-12.54l-4.23 -47.13c-0.51,-5.6 2.41,-10.95 7.39,-13.55l33.5 -21.57 15.41 -18.85 -6.53 -51.31 17.05 -18.58 9.15 76.7 -19.7 23.36 -36.07 24.32 2.75 40.5 28.86 2.75z"/>
   <path class="fil2" d="M251.27 44.18l0 90.28c-9.88,0 -18.13,-0.39 -25.31,-1.04 -36.77,-3.32 -45.03,-13.48 -95.64,-13.48l0 -90.28c50.61,0 58.87,10.16 95.64,13.48 7.18,0.65 15.44,1.03 25.31,1.03z"/>
   <path class="fil3" d="M251.27 44.18l0 90.28c-9.88,0 -18.13,-0.39 -25.31,-1.04l0 -90.28c7.18,0.65 15.44,1.03 25.31,1.03z"/>
   <path class="fil4" d="M251.27 74.53l0 59.93c-9.88,0 -18.13,-0.39 -25.31,-1.04 -36.77,-3.32 -45.03,-13.48 -95.64,-13.48l0 -59.93c50.61,0 58.87,10.16 95.64,13.48 7.18,0.65 15.44,1.04 25.31,1.04z"/>
   <path class="fil5" d="M251.27 74.53l0 59.93c-9.88,0 -18.13,-0.39 -25.31,-1.04l0 -59.93c7.18,0.65 15.44,1.04 25.31,1.04z"/>
   <path class="fil6" d="M251.27 104.19l0 30.28c-9.88,0 -18.13,-0.39 -25.31,-1.04 -36.77,-3.32 -45.03,-13.48 -95.64,-13.48l0 -30.27c50.61,0 58.87,10.15 95.64,13.47 7.18,0.65 15.44,1.04 25.31,1.04z"/>
   <path class="fil7" d="M251.27 104.19l0 30.28c-9.88,0 -18.13,-0.39 -25.31,-1.04l0 -30.28c7.18,0.65 15.44,1.04 25.31,1.04z"/>
   <path class="fil8" d="M389.51 109.95l19.7 -23.37c1.07,-1.27 1.57,-2.93 1.37,-4.59l-9.15 -76.69c-0.28,-2.33 -1.89,-4.29 -4.13,-5.01 -2.24,-0.72 -4.69,-0.08 -6.28,1.65l-41.44 45.14 -75.73 7.71c-3.3,0.34 -5.71,3.29 -5.38,6.6 0.34,3.3 3.3,5.71 6.6,5.38l78.01 -7.94c1.47,-0.15 2.82,-0.83 3.82,-1.92l34.14 -37.18 7.29 61.1 -17.48 20.73 -35.36 23.86c-1.78,1.2 -2.78,3.25 -2.64,5.39l2.75 40.51c0.2,2.94 2.5,5.3 5.43,5.58l25.18 2.4 12.91 32.86 -5.9 15.2 -17.19 -22.94c-1.34,-1.78 -3.55,-2.68 -5.75,-2.34l-26.12 4.12c-2.15,0.34 -3.95,1.82 -4.7,3.86l-8.46 22.97 -48.84 9.9c-3.25,0.66 -5.36,3.83 -4.7,7.09 0.58,2.85 3.09,4.83 5.89,4.83 0.4,0 0.8,-0.04 1.2,-0.12l52.12 -10.57c2.04,-0.41 3.72,-1.86 4.45,-3.82l8.4 -22.8 19.05 -3.01 21.52 28.71c1.31,1.75 3.46,2.65 5.63,2.35 2.16,-0.3 4,-1.75 4.79,-3.78l10.67 -27.49c0.55,-1.41 0.54,-2.97 -0.01,-4.38l-15.12 -38.49c-0.83,-2.11 -2.77,-3.57 -5.02,-3.79l-23.78 -2.26 -2.17 -31.95 33.19 -22.39c0.46,-0.31 0.88,-0.69 1.24,-1.11z"/>
   <path class="fil8" d="M245.78 248.27l-19.94 4.04 -47.49 -49.82c-1.49,-1.57 -3.72,-2.21 -5.82,-1.68l-34.46 8.68 -15.45 -19.01c-1.01,-1.25 -2.49,-2.04 -4.1,-2.19l-57.72 -5.5c-1.68,-0.15 -3.36,0.4 -4.62,1.54 -1.25,1.14 -1.97,2.75 -1.97,4.45l0 12.66 -22.84 23.35 -7.49 -32.83 9.69 -25.46c0.59,-1.54 0.51,-3.25 -0.19,-4.73 -0.71,-1.49 -1.99,-2.61 -3.56,-3.13l-16.65 -5.46 20.23 -82.67 38.19 -23.37 32.41 15.07c3.02,1.4 6.59,0.1 7.99,-2.92 1.4,-3.01 0.1,-6.59 -2.91,-7.99l-35.33 -16.44c-1.83,-0.85 -3.96,-0.73 -5.68,0.32l-43.06 26.34c-1.35,0.83 -2.33,2.16 -2.7,3.7l-22.15 90.49c-0.74,3.05 0.99,6.17 3.97,7.15l15.96 5.23 -8.1 21.28c-0.43,1.11 -0.51,2.32 -0.25,3.48l10.34 45.36c0.49,2.15 2.11,3.85 4.23,4.45 2.12,0.59 4.39,-0.01 5.93,-1.58l32.27 -32.99c1.1,-1.12 1.71,-2.63 1.71,-4.2l0 -8.5 48.63 4.63 16.28 20.03c1.47,1.82 3.87,2.61 6.14,2.04l34.77 -8.76 47.36 49.69c1.15,1.2 2.73,1.87 4.36,1.87 0.4,0 0.8,-0.04 1.19,-0.12l23.19 -4.7c3.26,-0.66 5.36,-3.83 4.7,-7.09 -0.66,-3.25 -3.83,-5.36 -7.09,-4.7z"/>
   <path class="fil8" d="M251.27 38.17c-29.52,0 -43.88,-3.44 -59.07,-7.09 -14.19,-3.4 -28.83,-6.92 -55.86,-7.37l0 -6.87c0,-3.32 -2.69,-6.02 -6.02,-6.02 -3.32,0 -6.01,2.69 -6.01,6.02l0 139.2c0,3.32 2.69,6.02 6.01,6.02 3.32,0 6.02,-2.69 6.02,-6.02l0 -30.02c25.53,0.43 38.93,3.65 53.05,7.04 15.21,3.65 30.93,7.42 61.88,7.42 3.32,0 6.02,-2.69 6.02,-6.02l0 -90.28c0,-3.32 -2.69,-6.02 -6.02,-6.02zm-61.88 4.61c14.19,3.4 28.83,6.92 55.87,7.37l0 18.32c-25.53,-0.43 -38.93,-3.65 -53.05,-7.04 -14.19,-3.41 -28.83,-6.92 -55.86,-7.37l0 -18.32c25.53,0.44 38.93,3.65 53.05,7.04zm2.81 78.59c-14.19,-3.41 -28.83,-6.92 -55.86,-7.37l0 -18.25c25.53,0.43 38.93,3.65 53.05,7.04 1.98,0.48 3.97,0.95 5.99,1.42 0.46,0.11 0.91,0.16 1.37,0.16 2.74,0 5.21,-1.88 5.85,-4.66 0.75,-3.24 -1.26,-6.47 -4.5,-7.22 -1.99,-0.46 -3.94,-0.93 -5.9,-1.4 -14.18,-3.4 -28.82,-6.92 -55.86,-7.37l0 -17.63c25.53,0.44 38.93,3.65 53.06,7.04 14.19,3.4 28.83,6.92 55.86,7.37l0 17.63c-7.65,-0.13 -14.6,-0.52 -21.11,-1.19 -3.31,-0.34 -6.26,2.07 -6.59,5.38 -0.34,3.3 2.07,6.26 5.37,6.59 6.91,0.71 14.26,1.11 22.33,1.25l0 18.24c-25.53,-0.44 -38.93,-3.65 -53.05,-7.04z"/>
  </g>
 </g>
</svg>
