<?xml version="1.0" encoding="UTF-8"?>
<!DOCTYPE svg PUBLIC "-//W3C//DTD SVG 1.1//EN" "http://www.w3.org/Graphics/SVG/1.1/DTD/svg11.dtd">
<!-- Creator: CorelDRAW 2018 (64-Bit) -->
<svg xmlns="http://www.w3.org/2000/svg" xml:space="preserve" width="18.5276mm" height="17.6263mm" version="1.1" style="shape-rendering:geometricPrecision; text-rendering:geometricPrecision; image-rendering:optimizeQuality; fill-rule:evenodd; clip-rule:evenodd"
viewBox="0 0 442.8 421.26"
 xmlns:xlink="http://www.w3.org/1999/xlink">
 <defs>
  <style type="text/css">
   <![CDATA[
    .fil0 {fill:white}
    .fil1 {fill:#FF3626;fill-rule:nonzero}
   ]]>
  </style>
 </defs>
 <g id="Слой_x0020_1">
  <metadata id="CorelCorpID_0Corel-Layer"/>
  <g id="_1103604848">
   <polygon class="fil0" points="400.53,152.42 442.8,210.63 400.53,268.84 400.52,340.79 332.08,362.99 289.83,421.26 221.39,398.94 152.97,421.26 110.72,362.99 42.28,340.78 42.27,268.84 -0,210.63 42.27,152.43 42.28,80.47 110.72,58.27 152.97,0 221.39,22.33 289.83,0 332.08,58.27 400.52,80.47 "/>
   <path class="fil1" d="M382.18 158.38l-0.01 -64.58 -61.45 -19.93 -37.91 -52.29 -61.43 20.04 -61.42 -20.04 -37.92 52.29 -61.44 19.93 -0.01 64.58 -37.94 52.24 37.94 52.25 0.01 64.57 61.44 19.93 37.92 52.29 61.42 -20.03 61.43 20.03 37.91 -52.29 61.45 -19.93 0.01 -64.57 37.94 -52.25 -37.94 -52.25zm-230.02 33.84c-6.62,-6.67 -10.32,-15.05 -10.32,-25.17l0 -9.06c0,-10.19 3.67,-18.65 10.26,-25.35 6.59,-6.7 16.15,-10.05 28.3,-10.05 12.31,0 21.59,3.35 28.17,10.05 6.59,6.7 9.71,15.16 9.71,25.35l0 9.06c0,10.19 -3.02,18.6 -9.61,25.23 -6.59,6.62 -16.01,9.94 -28.17,9.94 -12.23,0 -21.71,-3.33 -28.34,-10zm34.9 91.26l-18.46 -9.29 83.62 -133.84 18.46 9.29 -83.62 133.84zm113.01 -20.11c0,10.27 -3.2,18.72 -9.76,25.34 -6.55,6.63 -15.86,9.93 -28.02,9.93 -12.23,0 -21.79,-3.33 -28.5,-9.99 -6.7,-6.66 -10.15,-15.09 -10.15,-25.28l0 -9.06c0,-10.12 3.45,-18.53 10.12,-25.23 6.66,-6.7 16.13,-10.05 28.28,-10.05 12.31,0 21.7,3.33 28.24,9.99 6.55,6.67 9.78,15.1 9.78,25.29l0 9.06z"/>
   <path class="fil1" d="M189.81 176.79c2.16,-2.61 2.99,-5.87 2.99,-9.76l0 -8.99c0,-3.9 -0.85,-7.18 -3.04,-9.88 -2.2,-2.69 -5.21,-4.03 -9.28,-4.03 -4,0 -7.38,1.34 -9.57,4.03 -2.19,2.69 -3.57,5.98 -3.57,9.88l0 8.99c0,3.9 1.44,7.15 3.63,9.76 2.19,2.61 5.42,3.91 9.58,3.91 3.99,0 7.12,-1.31 9.28,-3.91z"/>
   <path class="fil1" d="M262.09 240.56c-4.08,0 -7.35,1.35 -9.55,4.03 -2.2,2.68 -3.44,5.94 -3.44,9.76l0 9c0,3.75 1.4,6.97 3.9,9.7 2.51,2.72 5.64,4.09 9.24,4.09 4.86,0 8.09,-1.21 9.81,-3.62 1.72,-2.42 2.51,-5.8 2.51,-10.17l0 -9c0,-3.82 -1.01,-7.07 -3.25,-9.76 -2.23,-2.68 -5.25,-4.03 -9.24,-4.03z"/>
  </g>
 </g>
</svg>
