<?xml version="1.0" encoding="UTF-8"?>
<!DOCTYPE svg PUBLIC "-//W3C//DTD SVG 1.1//EN" "http://www.w3.org/Graphics/SVG/1.1/DTD/svg11.dtd">
<!-- Creator: CorelDRAW 2018 (64-Bit) -->
<svg xmlns="http://www.w3.org/2000/svg" xml:space="preserve" width="120" height="auto" version="1.1" style="shape-rendering:geometricPrecision; text-rendering:geometricPrecision; image-rendering:optimizeQuality; fill-rule:evenodd; clip-rule:evenodd"
viewBox="0 0 134.18 177.55"
 xmlns:xlink="http://www.w3.org/1999/xlink">
 <defs>
  <style type="text/css">
   <![CDATA[
    .fil2 {fill:#E9466D;fill-rule:nonzero}
    .fil4 {fill:black;fill-rule:nonzero}
    .fil0 {fill:#465A82;fill-rule:nonzero}
    .fil1 {fill:#DFEEF4;fill-rule:nonzero}
    .fil3 {fill:#F2DA30;fill-rule:nonzero}
   ]]>
  </style>
 </defs>
 <g id="Слой_x0020_1">
  <metadata id="CorelCorpID_0Corel-Layer"/>
  <g id="_1101776112">
   <polygon class="fil0" points="2.61,174.93 131.57,174.93 131.57,14.44 2.61,14.44 "/>
   <polygon class="fil1" points="18.13,159.5 116.06,159.5 116.06,29.17 18.13,29.17 "/>
   <path class="fil2" d="M93.2 29.17l0 -20.01c0,-1.73 -0.69,-3.4 -1.91,-4.63 -1.23,-1.23 -2.89,-1.92 -4.63,-1.92l-39.13 0c-3.61,0 -6.54,2.93 -6.54,6.54l0 20.01 52.21 0.01z"/>
   <polygon class="fil3" points="33.72,106.08 57.21,106.08 57.21,82.59 33.72,82.59 "/>
   <polygon class="fil3" points="33.72,144.53 57.21,144.53 57.21,121.04 33.72,121.04 "/>
   <polygon class="fil3" points="33.72,67.62 57.21,67.62 57.21,44.13 33.72,44.13 "/>
   <path class="fil4" d="M2.61 151.5c1.44,0 2.61,-1.17 2.61,-2.61l0 -6.72c0,-3.48 -5.23,-3.48 -5.23,0l0 6.72c0,1.44 1.17,2.61 2.61,2.61z"/>
   <path class="fil4" d="M131.57 44.52c-1.44,0 -2.61,1.17 -2.61,2.61l0 125.18 -123.73 0 0 -11.11c0,-3.48 -5.23,-3.48 -5.23,0l0 13.74c0,1.44 1.17,2.61 2.61,2.61l128.96 0c1.44,0 2.61,-1.17 2.61,-2.61l0 -127.81c0,-1.44 -1.17,-2.61 -2.61,-2.61z"/>
   <path class="fil4" d="M131.57 11.83l-35.76 0 0 -2.67c-0.01,-5.06 -4.1,-9.15 -9.16,-9.15l-39.13 0c-5.05,0 -9.15,4.1 -9.15,9.15l0 2.67 -35.76 0c-1.44,-0 -2.61,1.17 -2.61,2.61l0 114.8c0,3.48 5.23,3.48 5.23,0l0 -112.19 33.14 0 0 9.5 -20.25 0c-1.44,0 -2.61,1.17 -2.61,2.61l0 130.33c0,1.44 1.17,2.61 2.61,2.61l97.93 0c1.44,0 2.61,-1.17 2.61,-2.61l0 -130.33c0,-1.44 -1.17,-2.61 -2.61,-2.61l-20.24 0 0 -9.5 33.14 0 0 18.61c0,3.48 5.23,3.48 5.23,0l0 -21.23c0,-1.45 -1.17,-2.62 -2.61,-2.61zm-18.13 145.06l-92.71 0 0 -125.1 92.71 0 0 125.1zm-69.85 -130.33l0 -17.4c0,-2.17 1.76,-3.93 3.93,-3.93l39.13 0c2.17,0 3.92,1.76 3.93,3.93l0 17.4 -46.98 0z"/>
   <path class="fil4" d="M66.94 55.88c0,1.44 1.17,2.61 2.61,2.61l30.91 0c3.48,0 3.48,-5.23 0,-5.23l-30.9 0c-1.44,-0 -2.62,1.17 -2.62,2.61z"/>
   <path class="fil4" d="M100.46 91.72l-30.9 0c-3.48,0 -3.48,5.23 0,5.23l30.9 0c3.48,0 3.48,-5.23 0,-5.23z"/>
   <path class="fil4" d="M100.46 130.17l-30.9 0c-3.48,0 -3.48,5.23 0,5.23l30.9 0c3.48,0 3.48,-5.23 0,-5.23z"/>
   <path class="fil4" d="M61.39 39.13l-2.79 2.79c-0.41,-0.26 -0.89,-0.4 -1.38,-0.4l-23.49 0c-1.44,0 -2.61,1.17 -2.61,2.61l0 23.49c0,1.44 1.17,2.61 2.61,2.61l23.49 0c1.44,0 2.61,-1.17 2.61,-2.61l0 -19.54 5.26 -5.26c2.38,-2.46 -1.24,-6.07 -3.7,-3.69zm-6.79 25.88l-18.27 0 0 -18.26 17.44 0 -8.29 8.29 -2.08 -2.08c-1.02,-1.05 -2.69,-1.07 -3.73,-0.03 -1.03,1.03 -1.02,2.71 0.03,3.73l3.93 3.93c1.02,1.02 2.68,1.02 3.7,0l7.27 -7.26 0 11.69z"/>
   <path class="fil4" d="M61.39 77.58l-2.79 2.79c-0.41,-0.26 -0.89,-0.4 -1.38,-0.4l-23.49 0c-1.44,0 -2.61,1.17 -2.61,2.61l0 23.49c0,1.44 1.17,2.61 2.61,2.61l23.49 0c1.44,0 2.61,-1.17 2.61,-2.61l0 -19.53 5.26 -5.26c2.38,-2.46 -1.24,-6.07 -3.7,-3.69zm-6.79 25.88l-18.27 0 0 -18.26 17.44 0 -8.29 8.29 -2.08 -2.08c-2.46,-2.38 -6.07,1.23 -3.7,3.69l3.93 3.93c1.02,1.02 2.68,1.02 3.7,0l7.27 -7.26 0 11.69z"/>
   <path class="fil4" d="M61.39 116.04l-2.79 2.79c-0.41,-0.26 -0.89,-0.4 -1.38,-0.4l-23.49 0c-1.44,0 -2.61,1.17 -2.61,2.61l0 23.49c0,1.44 1.17,2.61 2.61,2.61l23.49 0c1.44,0 2.61,-1.17 2.61,-2.61l0 -19.53 5.26 -5.26c1.05,-1.02 1.06,-2.69 0.03,-3.73 -1.03,-1.03 -2.71,-1.02 -3.73,0.03zm-6.79 25.88l-18.27 0 0 -18.26 17.44 0 -8.29 8.29 -2.08 -2.08c-2.46,-2.38 -6.07,1.23 -3.7,3.69l3.93 3.93c1.02,1.02 2.68,1.02 3.7,0l7.27 -7.26 0 11.69z"/>
  </g>
 </g>
</svg>
