<?xml version="1.0" encoding="UTF-8"?>
<!DOCTYPE svg PUBLIC "-//W3C//DTD SVG 1.1//EN" "http://www.w3.org/Graphics/SVG/1.1/DTD/svg11.dtd">
<!-- Creator: CorelDRAW 2018 (64-Bit) -->
<svg xmlns="http://www.w3.org/2000/svg" xml:space="preserve" width="31.2208mm" height="31.2208mm" version="1.1" style="shape-rendering:geometricPrecision; text-rendering:geometricPrecision; image-rendering:optimizeQuality; fill-rule:evenodd; clip-rule:evenodd"
viewBox="0 0 287.45 287.45"
 xmlns:xlink="http://www.w3.org/1999/xlink">
 <defs>
  <style type="text/css">
   <![CDATA[
    .fil0 {fill:#465A82}
   ]]>
  </style>
 </defs>
 <g id="Слой_x0020_1">
  <metadata id="CorelCorpID_0Corel-Layer"/>
  <path class="fil0" d="M143.72 0c79.38,0 143.72,64.35 143.72,143.72 0,79.38 -64.35,143.72 -143.72,143.72 -79.38,0 -143.72,-64.35 -143.72,-143.72 0,-79.38 64.35,-143.72 143.72,-143.72zm80.86 119.41l-52.5 -8.02 -23.53 -50.12c-1.76,-3.74 -7.9,-3.74 -9.66,0l-23.52 50.12 -52.5 8.02c-4.31,0.66 -6.03,5.91 -3.01,9l38.14 39.09 -9.02 55.27c-0.72,4.39 3.97,7.68 7.85,5.53l46.89 -25.91 46.89 25.92c3.84,2.14 8.57,-1.1 7.85,-5.53l-9.02 -55.27 38.14 -39.09c3.02,-3.1 1.3,-8.35 -3.01,-9.01z"/>
 </g>
</svg>
